<svg xmlns="http://www.w3.org/2000/svg" viewBox="0 0 534 532" width="534" height="532" class="floorplan theme-auto" role="img" aria-label="Floor plan Apartamento T2, 8.70 by 9.40 metres, 7 rooms"><style>svg.floorplan{--bg:#ffffff;--wall:#1b1b1b;--ink:#333333;--muted:#8a8a8a;--accent:#2f9e5b;--water:#2f7fd0;--fill-alpha:.14;font-family:ui-sans-serif, system-ui, -apple-system, 'Segoe UI', Helvetica, Arial, sans-serif}
svg.floorplan.theme-dark{--bg:#121212;--wall:#ededed;--ink:#d6d6d6;--muted:#8f8f8f;--water:#4f9ae8;--fill-alpha:.28}
@media (prefers-color-scheme:dark){svg.floorplan.theme-auto{--bg:#121212;--wall:#ededed;--ink:#d6d6d6;--muted:#8f8f8f;--water:#4f9ae8;--fill-alpha:.28}}
.rn{font-size:12px;font-weight:600;fill:var(--ink)}
.ra{font-size:10.5px;fill:var(--muted)}
.rk{font-size:10px;font-weight:700;fill:var(--ink)}
.dim{font-size:10.5px;fill:var(--muted);font-variant-numeric:tabular-nums}
.tag{font-size:8.5px;font-weight:700;letter-spacing:.08em;fill:var(--accent)}
.fx{font-size:9.5px;font-weight:600;fill:var(--muted)}
.mk{font-size:10px;font-weight:700;fill:#fff}
.title{font-size:15px;font-weight:700;fill:var(--ink)}</style><rect width="100%" height="100%" fill="var(--bg)"/><g class="room" data-id="quarto1"><title>Quarto 1 — 13.0 m²</title><polygon points="78,86 206,86 206,266 78,266" fill="#2f6fdb" fill-opacity="var(--fill-alpha)"/></g><g class="room" data-id="quarto2"><title>Quarto 2 — 15.6 m²</title><polygon points="250,86 426,86 426,266 330,266 330,214 250,214" fill="#2f6fdb" fill-opacity="var(--fill-alpha)"/></g><g class="room" data-id="wc"><title>WC — 5.1 m²</title><polygon points="250,214 330,214 330,326 250,326" fill="#2f6fdb" fill-opacity="var(--fill-alpha)"/></g><g class="room" data-id="hall"><title>Hall — 5.8 m²</title><polygon points="206,86 250,86 250,326 206,326" fill="#e07b1a" fill-opacity="var(--fill-alpha)"/></g><g class="room" data-id="sala"><title>Sala — 17.8 m²</title><polygon points="78,266 206,266 206,326 250,326 250,462 78,462" fill="#e07b1a" fill-opacity="var(--fill-alpha)"/></g><g class="room" data-id="cozinha"><title>Cozinha — 13.6 m²</title><polygon points="250,326 426,326 426,462 250,462" fill="#e07b1a" fill-opacity="var(--fill-alpha)"/></g><g class="room" data-id="lavandaria"><title>Lavandaria — 3.1 m²</title><polygon points="330,266 426,266 426,326 330,326" fill="#2f9e5b" fill-opacity="var(--fill-alpha)"/></g><path data-wall="w4" data-axis="h" data-c="3.2" d="M250 214 L330 214" fill="none" stroke="var(--wall)" stroke-opacity=".9" stroke-width="4.4" stroke-linecap="butt" stroke-linejoin="miter" stroke-miterlimit="8"/><path data-wall="w5" data-axis="h" data-c="4.5" d="M78 266 L206 266" fill="none" stroke="var(--wall)" stroke-opacity=".9" stroke-width="4.4" stroke-linecap="butt" stroke-linejoin="miter" stroke-miterlimit="8"/><path data-wall="w6" data-axis="h" data-c="4.5" d="M330 266 L426 266" fill="none" stroke="var(--wall)" stroke-opacity=".9" stroke-width="4.4" stroke-linecap="butt" stroke-linejoin="miter" stroke-miterlimit="8"/><path data-wall="w8" data-axis="h" data-c="6" d="M250 326 L330 326" fill="none" stroke="var(--wall)" stroke-opacity=".9" stroke-width="4.4" stroke-linecap="butt" stroke-linejoin="miter" stroke-miterlimit="8"/><path data-wall="w9" data-axis="h" data-c="6" d="M330 326 L392 326" fill="none" stroke="var(--wall)" stroke-opacity=".9" stroke-width="4.4" stroke-linecap="butt" stroke-linejoin="miter" stroke-miterlimit="8"/><path data-wall="w9" data-axis="h" data-c="6" d="M420 326 L426 326" fill="none" stroke="var(--wall)" stroke-opacity=".9" stroke-width="4.4" stroke-linecap="butt" stroke-linejoin="miter" stroke-miterlimit="8"/><path data-wall="w14" data-axis="v" data-c="3.2" d="M206 228 L206 86" fill="none" stroke="var(--wall)" stroke-opacity=".9" stroke-width="4.4" stroke-linecap="butt" stroke-linejoin="miter" stroke-miterlimit="8"/><path data-wall="w14" data-axis="v" data-c="3.2" d="M206 266 L206 260" fill="none" stroke="var(--wall)" stroke-opacity=".9" stroke-width="4.4" stroke-linecap="butt" stroke-linejoin="miter" stroke-miterlimit="8"/><path data-wall="w15" data-axis="v" data-c="3.2" d="M206 326 L206 266" fill="none" stroke="var(--wall)" stroke-opacity=".9" stroke-width="4.4" stroke-linecap="butt" stroke-linejoin="miter" stroke-miterlimit="8"/><path data-wall="w16" data-axis="v" data-c="4.3" d="M250 176 L250 86" fill="none" stroke="var(--wall)" stroke-opacity=".9" stroke-width="4.4" stroke-linecap="butt" stroke-linejoin="miter" stroke-miterlimit="8"/><path data-wall="w16" data-axis="v" data-c="4.3" d="M250 214 L250 208" fill="none" stroke="var(--wall)" stroke-opacity=".9" stroke-width="4.4" stroke-linecap="butt" stroke-linejoin="miter" stroke-miterlimit="8"/><path data-wall="w17" data-axis="v" data-c="4.3" d="M250 222 L250 214" fill="none" stroke="var(--wall)" stroke-opacity=".9" stroke-width="4.4" stroke-linecap="butt" stroke-linejoin="miter" stroke-miterlimit="8"/><path data-wall="w17" data-axis="v" data-c="4.3" d="M250 326 L250 250" fill="none" stroke="var(--wall)" stroke-opacity=".9" stroke-width="4.4" stroke-linecap="butt" stroke-linejoin="miter" stroke-miterlimit="8"/><path data-wall="w18" data-axis="v" data-c="4.3" d="M250 346 L250 326" fill="none" stroke="var(--wall)" stroke-opacity=".9" stroke-width="4.4" stroke-linecap="butt" stroke-linejoin="miter" stroke-miterlimit="8"/><path data-wall="w18" data-axis="v" data-c="4.3" d="M250 462 L250 418" fill="none" stroke="var(--wall)" stroke-opacity=".9" stroke-width="4.4" stroke-linecap="butt" stroke-linejoin="miter" stroke-miterlimit="8"/><path data-wall="w19" data-axis="v" data-c="6.3" d="M330 266 L330 214" fill="none" stroke="var(--wall)" stroke-opacity=".9" stroke-width="4.4" stroke-linecap="butt" stroke-linejoin="miter" stroke-miterlimit="8"/><path data-wall="w20" data-axis="v" data-c="6.3" d="M330 326 L330 266" fill="none" stroke="var(--wall)" stroke-opacity=".9" stroke-width="4.4" stroke-linecap="butt" stroke-linejoin="miter" stroke-miterlimit="8"/><path data-wall="w1" data-axis="h" data-c="0" d="M78 86 L206 86" fill="none" stroke="var(--wall)" stroke-opacity="1" stroke-width="10" stroke-linecap="butt" stroke-linejoin="miter" stroke-miterlimit="8"/><path data-wall="w2" data-axis="h" data-c="0" d="M206 86 L210 86" fill="none" stroke="var(--wall)" stroke-opacity="1" stroke-width="10" stroke-linecap="butt" stroke-linejoin="miter" stroke-miterlimit="8"/><path data-wall="w2" data-axis="h" data-c="0" d="M246 86 L250 86" fill="none" stroke="var(--wall)" stroke-opacity="1" stroke-width="10" stroke-linecap="butt" stroke-linejoin="miter" stroke-miterlimit="8"/><path data-wall="w3" data-axis="h" data-c="0" d="M250 86 L322 86" fill="none" stroke="var(--wall)" stroke-opacity="1" stroke-width="10" stroke-linecap="butt" stroke-linejoin="miter" stroke-miterlimit="8"/><path data-wall="w3" data-axis="h" data-c="0" d="M386 86 L426 86" fill="none" stroke="var(--wall)" stroke-opacity="1" stroke-width="10" stroke-linecap="butt" stroke-linejoin="miter" stroke-miterlimit="8"/><path data-wall="w10" data-axis="h" data-c="9.4" d="M78 462 L110 462" fill="none" stroke="var(--wall)" stroke-opacity="1" stroke-width="10" stroke-linecap="butt" stroke-linejoin="miter" stroke-miterlimit="8"/><path data-wall="w10" data-axis="h" data-c="9.4" d="M214 462 L250 462" fill="none" stroke="var(--wall)" stroke-opacity="1" stroke-width="10" stroke-linecap="butt" stroke-linejoin="miter" stroke-miterlimit="8"/><path data-wall="w11" data-axis="h" data-c="9.4" d="M250 462 L306 462" fill="none" stroke="var(--wall)" stroke-opacity="1" stroke-width="10" stroke-linecap="butt" stroke-linejoin="miter" stroke-miterlimit="8"/><path data-wall="w11" data-axis="h" data-c="9.4" d="M370 462 L426 462" fill="none" stroke="var(--wall)" stroke-opacity="1" stroke-width="10" stroke-linecap="butt" stroke-linejoin="miter" stroke-miterlimit="8"/><path data-wall="w12" data-axis="v" data-c="0" d="M78 142 L78 86" fill="none" stroke="var(--wall)" stroke-opacity="1" stroke-width="10" stroke-linecap="butt" stroke-linejoin="miter" stroke-miterlimit="8"/><path data-wall="w12" data-axis="v" data-c="0" d="M78 266 L78 206" fill="none" stroke="var(--wall)" stroke-opacity="1" stroke-width="10" stroke-linecap="butt" stroke-linejoin="miter" stroke-miterlimit="8"/><path data-wall="w13" data-axis="v" data-c="0" d="M78 358 L78 266" fill="none" stroke="var(--wall)" stroke-opacity="1" stroke-width="10" stroke-linecap="butt" stroke-linejoin="miter" stroke-miterlimit="8"/><path data-wall="w13" data-axis="v" data-c="0" d="M78 462 L78 414" fill="none" stroke="var(--wall)" stroke-opacity="1" stroke-width="10" stroke-linecap="butt" stroke-linejoin="miter" stroke-miterlimit="8"/><path data-wall="w21" data-axis="v" data-c="8.7" d="M426 266 L426 86" fill="none" stroke="var(--wall)" stroke-opacity="1" stroke-width="10" stroke-linecap="butt" stroke-linejoin="miter" stroke-miterlimit="8"/><path data-wall="w22" data-axis="v" data-c="8.7" d="M426 280 L426 266" fill="none" stroke="var(--wall)" stroke-opacity="1" stroke-width="10" stroke-linecap="butt" stroke-linejoin="miter" stroke-miterlimit="8"/><path data-wall="w22" data-axis="v" data-c="8.7" d="M426 326 L426 312" fill="none" stroke="var(--wall)" stroke-opacity="1" stroke-width="10" stroke-linecap="butt" stroke-linejoin="miter" stroke-miterlimit="8"/><path data-wall="w23" data-axis="v" data-c="8.7" d="M426 462 L426 326" fill="none" stroke="var(--wall)" stroke-opacity="1" stroke-width="10" stroke-linecap="butt" stroke-linejoin="miter" stroke-miterlimit="8"/><polygon class="wall-join" points="330,214 330,211.8 332.2,211.8 332.2,214" fill="var(--wall)" fill-opacity=".9" stroke="none"/><polygon class="wall-join" points="78,86 78,81 73,81 73,86" fill="var(--wall)" fill-opacity="1" stroke="none"/><polygon class="wall-join" points="426,86 426,81 431,81 431,86" fill="var(--wall)" fill-opacity="1" stroke="none"/><polygon class="wall-join" points="78,462 78,467 73,467 73,462" fill="var(--wall)" fill-opacity="1" stroke="none"/><polygon class="wall-join" points="426,462 426,467 431,467 431,462" fill="var(--wall)" fill-opacity="1" stroke="none"/><g class="door"><path d="M246 86 A36 36 0 0 1 210 122" fill="none" stroke="var(--muted)" stroke-width="1"/><line x1="210" y1="86" x2="210" y2="122" stroke="var(--wall)" stroke-width="2"/></g><text x="228" y="70" text-anchor="middle" class="tag">ENTRANCE</text><g class="door"><path d="M206 228 A32 32 0 0 0 174 260" fill="none" stroke="var(--muted)" stroke-width="1"/><line x1="206" y1="260" x2="174" y2="260" stroke="var(--wall)" stroke-width="2"/></g><g class="door"><path d="M250 176 A32 32 0 0 1 282 208" fill="none" stroke="var(--muted)" stroke-width="1"/><line x1="250" y1="208" x2="282" y2="208" stroke="var(--wall)" stroke-width="2"/></g><g class="door"><path d="M250 250 A28 28 0 0 0 278 222" fill="none" stroke="var(--muted)" stroke-width="1"/><line x1="250" y1="222" x2="278" y2="222" stroke="var(--wall)" stroke-width="2"/></g><path d="M206 326 L250 326" fill="none" stroke="var(--muted)" stroke-width="1" stroke-dasharray="4 3"/><path d="M250 418 L250 346" fill="none" stroke="var(--muted)" stroke-width="1" stroke-dasharray="4 3"/><g class="door"><path d="M392 326 A28 28 0 0 1 420 298" fill="none" stroke="var(--muted)" stroke-width="1"/><line x1="420" y1="326" x2="420" y2="298" stroke="var(--wall)" stroke-width="2"/></g><g class="window"><path d="M75.52 206 L75.52 142" fill="none" stroke="var(--wall)" stroke-width="1"/><path d="M80.52 206 L80.52 142" fill="none" stroke="var(--wall)" stroke-width="1"/></g><g class="window"><path d="M322 83.52 L386 83.52" fill="none" stroke="var(--wall)" stroke-width="1"/><path d="M322 88.52 L386 88.52" fill="none" stroke="var(--wall)" stroke-width="1"/></g><g class="window"><path d="M110 459.52 L214 459.52" fill="none" stroke="var(--wall)" stroke-width="1"/><path d="M110 464.52 L214 464.52" fill="none" stroke="var(--wall)" stroke-width="1"/></g><g class="window"><path d="M75.52 414 L75.52 358" fill="none" stroke="var(--wall)" stroke-width="1"/><path d="M80.52 414 L80.52 358" fill="none" stroke="var(--wall)" stroke-width="1"/></g><g class="window"><path d="M306 459.52 L370 459.52" fill="none" stroke="var(--wall)" stroke-width="1"/><path d="M306 464.52 L370 464.52" fill="none" stroke="var(--wall)" stroke-width="1"/></g><g class="window"><path d="M423.52 312 L423.52 280" fill="none" stroke="var(--wall)" stroke-width="1"/><path d="M428.52 312 L428.52 280" fill="none" stroke="var(--wall)" stroke-width="1"/></g><text x="142" y="174" text-anchor="middle" class="rn">Quarto 1</text><text x="142" y="188" text-anchor="middle" class="ra">13.0 m²</text><text x="338" y="148" text-anchor="middle" class="rn">Quarto 2</text><text x="338" y="162" text-anchor="middle" class="ra">15.6 m²</text><text x="290" y="268" text-anchor="middle" class="rn">WC</text><text x="290" y="282" text-anchor="middle" class="ra">5.1 m²</text><text x="228" y="204" text-anchor="middle" class="rn">Hall</text><text x="228" y="218" text-anchor="middle" class="ra">5.8 m²</text><text x="142" y="362" text-anchor="middle" class="rn">Sala</text><text x="142" y="376" text-anchor="middle" class="ra">17.8 m²</text><text x="338" y="392" text-anchor="middle" class="rn">Cozinha</text><text x="338" y="406" text-anchor="middle" class="ra">13.6 m²</text><text x="378" y="294" text-anchor="middle" class="rn">Lavandaria</text><text x="378" y="308" text-anchor="middle" class="ra">3.1 m²</text><g class="dims" stroke="var(--muted)" stroke-width="1"><line x1="78" y1="60" x2="426" y2="60"/><line x1="78" y1="55" x2="78" y2="65"/><line x1="426" y1="55" x2="426" y2="65"/><line x1="44" y1="86" x2="44" y2="462"/><line x1="39" y1="86" x2="49" y2="86"/><line x1="39" y1="462" x2="49" y2="462"/></g><text x="252" y="53" text-anchor="middle" class="dim">8.70 m</text><text x="36" y="274" text-anchor="middle" class="dim" transform="rotate(-90 36 274)">9.40 m</text><g transform="rotate(0 484 116)" stroke="var(--ink)" fill="var(--ink)"><line x1="484" y1="136" x2="484" y2="102" stroke-width="1.5"/><path d="M484 96 L479 107 L489 107 z" stroke="none"/></g><text x="484" y="150" text-anchor="middle" class="dim">N</text><g stroke="var(--ink)"><line x1="78" y1="502" x2="278" y2="502" stroke-width="2"/><line x1="78" y1="498" x2="78" y2="506" stroke-width="1"/><line x1="118" y1="498" x2="118" y2="506" stroke-width="1"/><line x1="158" y1="498" x2="158" y2="506" stroke-width="1"/><line x1="198" y1="498" x2="198" y2="506" stroke-width="1"/><line x1="238" y1="498" x2="238" y2="506" stroke-width="1"/><line x1="278" y1="498" x2="278" y2="506" stroke-width="1"/></g><text x="78" y="519" text-anchor="start" class="dim">0</text><text x="278" y="519" text-anchor="middle" class="dim">5 m</text><g class="finding"><title>warning room.min_dimension: Hall (hall): 0.99 m at its narrowest; comfort minimum is 1 m (clear floor 0.99 × 5.82 m)</title><circle cx="255.44" cy="200" r="9" fill="#e07b1a" fill-opacity=".9"/><text x="255.44" y="203.5" text-anchor="middle" class="mk">1</text></g><g class="finding"><title>warning wet.no_window: WC has no exterior window; plan mechanical extraction</title><circle cx="310.72" cy="264" r="9" fill="#e07b1a" fill-opacity=".9"/><text x="310.72" y="267.5" text-anchor="middle" class="mk">2</text></g><text x="78" y="24" class="title">Apartamento T2</text></svg>