<svg xmlns="http://www.w3.org/2000/svg" viewBox="0 0 858 692" width="858" height="692" class="floorplan theme-auto" role="img" aria-label="Floor plan Casa T3, 16.80 by 10.60 metres, 13 rooms"><style>svg.floorplan{--bg:#ffffff;--wall:#1b1b1b;--ink:#333333;--muted:#8a8a8a;--accent:#2f9e5b;--water:#2f7fd0;--fill-alpha:.14;font-family:ui-sans-serif, system-ui, -apple-system, 'Segoe UI', Helvetica, Arial, sans-serif}
svg.floorplan.theme-dark{--bg:#121212;--wall:#ededed;--ink:#d6d6d6;--muted:#8f8f8f;--water:#4f9ae8;--fill-alpha:.28}
@media (prefers-color-scheme:dark){svg.floorplan.theme-auto{--bg:#121212;--wall:#ededed;--ink:#d6d6d6;--muted:#8f8f8f;--water:#4f9ae8;--fill-alpha:.28}}
.rn{font-size:12px;font-weight:600;fill:var(--ink)}
.ra{font-size:10.5px;fill:var(--muted)}
.rk{font-size:10px;font-weight:700;fill:var(--ink)}
.dim{font-size:10.5px;fill:var(--muted);font-variant-numeric:tabular-nums}
.tag{font-size:8.5px;font-weight:700;letter-spacing:.08em;fill:var(--accent)}
.fx{font-size:9.5px;font-weight:600;fill:var(--muted)}
.mk{font-size:10px;font-weight:700;fill:#fff}
.title{font-size:15px;font-weight:700;fill:var(--ink)}</style><rect width="100%" height="100%" fill="var(--bg)"/><polygon points="342,510 558,510 558,622 342,622" fill="var(--accent)" fill-opacity=".08" stroke="var(--accent)" stroke-width="1" stroke-dasharray="5 4"/><text x="450" y="564" text-anchor="middle" class="rn">Alpendre</text><text x="450" y="578" text-anchor="middle" class="ra">15.1 m² covered</text><g class="room" data-id="suite"><title>Suite parental — 18.4 m²</title><polygon points="78,86 262,86 262,262 78,262" fill="#2f6fdb" fill-opacity="var(--fill-alpha)"/></g><g class="room" data-id="wc_suite"><title>WC suite — 4.1 m²</title><polygon points="262,86 350,86 350,174 262,174" fill="#2f6fdb" fill-opacity="var(--fill-alpha)"/></g><g class="room" data-id="closet"><title>Closet — 4.3 m²</title><polygon points="262,174 350,174 350,262 262,262" fill="#2f6fdb" fill-opacity="var(--fill-alpha)"/></g><g class="room" data-id="quarto1"><title>Quarto 1 — 14.6 m²</title><polygon points="350,86 494,86 494,262 350,262" fill="#2f6fdb" fill-opacity="var(--fill-alpha)"/></g><g class="room" data-id="quarto2"><title>Quarto 2 — 14.6 m²</title><polygon points="494,86 638,86 638,262 494,262" fill="#2f6fdb" fill-opacity="var(--fill-alpha)"/></g><g class="room" data-id="wc_comum"><title>WC comum — 10.9 m²</title><polygon points="638,86 750,86 750,262 638,262" fill="#2f6fdb" fill-opacity="var(--fill-alpha)"/></g><g class="room" data-id="distrib"><title>Distribuidor — 15.3 m²</title><polygon points="262,262 750,262 750,318 262,318" fill="#2f6fdb" fill-opacity="var(--fill-alpha)"/></g><g class="room" data-id="hall"><title>Hall — 15.3 m²</title><polygon points="78,262 262,262 262,406 78,406" fill="#e07b1a" fill-opacity="var(--fill-alpha)"/></g><g class="room" data-id="escritorio"><title>Escritório — 10.5 m²</title><polygon points="78,406 262,406 262,510 78,510" fill="#2f9e5b" fill-opacity="var(--fill-alpha)"/></g><g class="room" data-id="wc_social"><title>WC social — 3.5 m²</title><polygon points="262,318 342,318 342,398 262,398" fill="#e07b1a" fill-opacity="var(--fill-alpha)"/></g><g class="room" data-id="sala"><title>Sala comum — 29.4 m²</title><polygon points="342,318 558,318 558,510 262,510 262,398 342,398" fill="#e07b1a" fill-opacity="var(--fill-alpha)"/></g><g class="room" data-id="cozinha"><title>Cozinha — 18.0 m²</title><polygon points="558,318 678,318 678,390 750,390 750,510 558,510" fill="#e07b1a" fill-opacity="var(--fill-alpha)"/></g><g class="room" data-id="despensa"><title>Despensa — 2.7 m²</title><polygon points="678,318 750,318 750,390 678,390" fill="#2f9e5b" fill-opacity="var(--fill-alpha)"/></g><line data-wall="w6" data-axis="h" data-c="2.2" x1="259.6" y1="174" x2="352.4" y2="174" stroke="var(--wall)" stroke-opacity=".9" stroke-width="4.8" stroke-linecap="butt"/><line data-wall="w7" data-axis="h" data-c="4.4" x1="75.6" y1="262" x2="198" y2="262" stroke="var(--wall)" stroke-opacity=".9" stroke-width="4.8" stroke-linecap="butt"/><line data-wall="w7" data-axis="h" data-c="4.4" x1="234" y1="262" x2="264.4" y2="262" stroke="var(--wall)" stroke-opacity=".9" stroke-width="4.8" stroke-linecap="butt"/><line data-wall="w8" data-axis="h" data-c="4.4" x1="259.6" y1="262" x2="352.4" y2="262" stroke="var(--wall)" stroke-opacity=".9" stroke-width="4.8" stroke-linecap="butt"/><line data-wall="w9" data-axis="h" data-c="4.4" x1="347.6" y1="262" x2="374" y2="262" stroke="var(--wall)" stroke-opacity=".9" stroke-width="4.8" stroke-linecap="butt"/><line data-wall="w9" data-axis="h" data-c="4.4" x1="410" y1="262" x2="496.4" y2="262" stroke="var(--wall)" stroke-opacity=".9" stroke-width="4.8" stroke-linecap="butt"/><line data-wall="w10" data-axis="h" data-c="4.4" x1="491.6" y1="262" x2="518" y2="262" stroke="var(--wall)" stroke-opacity=".9" stroke-width="4.8" stroke-linecap="butt"/><line data-wall="w10" data-axis="h" data-c="4.4" x1="554" y1="262" x2="640.4" y2="262" stroke="var(--wall)" stroke-opacity=".9" stroke-width="4.8" stroke-linecap="butt"/><line data-wall="w11" data-axis="h" data-c="4.4" x1="635.6" y1="262" x2="662" y2="262" stroke="var(--wall)" stroke-opacity=".9" stroke-width="4.8" stroke-linecap="butt"/><line data-wall="w11" data-axis="h" data-c="4.4" x1="698" y1="262" x2="752.4" y2="262" stroke="var(--wall)" stroke-opacity=".9" stroke-width="4.8" stroke-linecap="butt"/><line data-wall="w12" data-axis="h" data-c="5.8" x1="259.6" y1="318" x2="344.4" y2="318" stroke="var(--wall)" stroke-opacity=".9" stroke-width="4.8" stroke-linecap="butt"/><line data-wall="w13" data-axis="h" data-c="5.8" x1="339.6" y1="318" x2="358" y2="318" stroke="var(--wall)" stroke-opacity=".9" stroke-width="4.8" stroke-linecap="butt"/><line data-wall="w13" data-axis="h" data-c="5.8" x1="422" y1="318" x2="560.4" y2="318" stroke="var(--wall)" stroke-opacity=".9" stroke-width="4.8" stroke-linecap="butt"/><line data-wall="w14" data-axis="h" data-c="5.8" x1="555.6" y1="318" x2="680.4" y2="318" stroke="var(--wall)" stroke-opacity=".9" stroke-width="4.8" stroke-linecap="butt"/><line data-wall="w15" data-axis="h" data-c="5.8" x1="675.6" y1="318" x2="752.4" y2="318" stroke="var(--wall)" stroke-opacity=".9" stroke-width="4.8" stroke-linecap="butt"/><line data-wall="w16" data-axis="h" data-c="7.6" x1="675.6" y1="390" x2="702" y2="390" stroke="var(--wall)" stroke-opacity=".9" stroke-width="4.8" stroke-linecap="butt"/><line data-wall="w16" data-axis="h" data-c="7.6" x1="734" y1="390" x2="752.4" y2="390" stroke="var(--wall)" stroke-opacity=".9" stroke-width="4.8" stroke-linecap="butt"/><line data-wall="w17" data-axis="h" data-c="7.8" x1="259.6" y1="398" x2="344.4" y2="398" stroke="var(--wall)" stroke-opacity=".9" stroke-width="4.8" stroke-linecap="butt"/><line data-wall="w18" data-axis="h" data-c="8" x1="75.6" y1="406" x2="126" y2="406" stroke="var(--wall)" stroke-opacity=".9" stroke-width="4.8" stroke-linecap="butt"/><line data-wall="w18" data-axis="h" data-c="8" x1="158" y1="406" x2="264.4" y2="406" stroke="var(--wall)" stroke-opacity=".9" stroke-width="4.8" stroke-linecap="butt"/><line data-wall="w25" data-axis="v" data-c="4.6" x1="262" y1="83.6" x2="262" y2="110" stroke="var(--wall)" stroke-opacity=".9" stroke-width="4.8" stroke-linecap="butt"/><line data-wall="w25" data-axis="v" data-c="4.6" x1="262" y1="142" x2="262" y2="176.4" stroke="var(--wall)" stroke-opacity=".9" stroke-width="4.8" stroke-linecap="butt"/><line data-wall="w26" data-axis="v" data-c="4.6" x1="262" y1="171.6" x2="262" y2="190" stroke="var(--wall)" stroke-opacity=".9" stroke-width="4.8" stroke-linecap="butt"/><line data-wall="w26" data-axis="v" data-c="4.6" x1="262" y1="222" x2="262" y2="264.4" stroke="var(--wall)" stroke-opacity=".9" stroke-width="4.8" stroke-linecap="butt"/><line data-wall="w28" data-axis="v" data-c="4.6" x1="262" y1="315.6" x2="262" y2="326" stroke="var(--wall)" stroke-opacity=".9" stroke-width="4.8" stroke-linecap="butt"/><line data-wall="w28" data-axis="v" data-c="4.6" x1="262" y1="358" x2="262" y2="400.4" stroke="var(--wall)" stroke-opacity=".9" stroke-width="4.8" stroke-linecap="butt"/><line data-wall="w29" data-axis="v" data-c="4.6" x1="262" y1="395.6" x2="262" y2="408.4" stroke="var(--wall)" stroke-opacity=".9" stroke-width="4.8" stroke-linecap="butt"/><line data-wall="w30" data-axis="v" data-c="4.6" x1="262" y1="403.6" x2="262" y2="512.4" stroke="var(--wall)" stroke-opacity=".9" stroke-width="4.8" stroke-linecap="butt"/><line data-wall="w31" data-axis="v" data-c="6.6" x1="342" y1="315.6" x2="342" y2="400.4" stroke="var(--wall)" stroke-opacity=".9" stroke-width="4.8" stroke-linecap="butt"/><line data-wall="w32" data-axis="v" data-c="6.8" x1="350" y1="83.6" x2="350" y2="176.4" stroke="var(--wall)" stroke-opacity=".9" stroke-width="4.8" stroke-linecap="butt"/><line data-wall="w33" data-axis="v" data-c="6.8" x1="350" y1="171.6" x2="350" y2="264.4" stroke="var(--wall)" stroke-opacity=".9" stroke-width="4.8" stroke-linecap="butt"/><line data-wall="w34" data-axis="v" data-c="10.4" x1="494" y1="83.6" x2="494" y2="264.4" stroke="var(--wall)" stroke-opacity=".9" stroke-width="4.8" stroke-linecap="butt"/><line data-wall="w35" data-axis="v" data-c="12" x1="558" y1="315.6" x2="558" y2="366" stroke="var(--wall)" stroke-opacity=".9" stroke-width="4.8" stroke-linecap="butt"/><line data-wall="w35" data-axis="v" data-c="12" x1="558" y1="430" x2="558" y2="512.4" stroke="var(--wall)" stroke-opacity=".9" stroke-width="4.8" stroke-linecap="butt"/><line data-wall="w36" data-axis="v" data-c="14" x1="638" y1="83.6" x2="638" y2="264.4" stroke="var(--wall)" stroke-opacity=".9" stroke-width="4.8" stroke-linecap="butt"/><line data-wall="w37" data-axis="v" data-c="15" x1="678" y1="315.6" x2="678" y2="392.4" stroke="var(--wall)" stroke-opacity=".9" stroke-width="4.8" stroke-linecap="butt"/><line data-wall="w1" data-axis="h" data-c="0" x1="72" y1="86" x2="126" y2="86" stroke="var(--wall)" stroke-opacity="1" stroke-width="12" stroke-linecap="butt"/><line data-wall="w1" data-axis="h" data-c="0" x1="214" y1="86" x2="268" y2="86" stroke="var(--wall)" stroke-opacity="1" stroke-width="12" stroke-linecap="butt"/><line data-wall="w2" data-axis="h" data-c="0" x1="256" y1="86" x2="356" y2="86" stroke="var(--wall)" stroke-opacity="1" stroke-width="12" stroke-linecap="butt"/><line data-wall="w3" data-axis="h" data-c="0" x1="344" y1="86" x2="390" y2="86" stroke="var(--wall)" stroke-opacity="1" stroke-width="12" stroke-linecap="butt"/><line data-wall="w3" data-axis="h" data-c="0" x1="462" y1="86" x2="500" y2="86" stroke="var(--wall)" stroke-opacity="1" stroke-width="12" stroke-linecap="butt"/><line data-wall="w4" data-axis="h" data-c="0" x1="488" y1="86" x2="534" y2="86" stroke="var(--wall)" stroke-opacity="1" stroke-width="12" stroke-linecap="butt"/><line data-wall="w4" data-axis="h" data-c="0" x1="606" y1="86" x2="644" y2="86" stroke="var(--wall)" stroke-opacity="1" stroke-width="12" stroke-linecap="butt"/><line data-wall="w5" data-axis="h" data-c="0" x1="632" y1="86" x2="678" y2="86" stroke="var(--wall)" stroke-opacity="1" stroke-width="12" stroke-linecap="butt"/><line data-wall="w5" data-axis="h" data-c="0" x1="718" y1="86" x2="756" y2="86" stroke="var(--wall)" stroke-opacity="1" stroke-width="12" stroke-linecap="butt"/><line data-wall="w19" data-axis="h" data-c="10.6" x1="72" y1="510" x2="118" y2="510" stroke="var(--wall)" stroke-opacity="1" stroke-width="12" stroke-linecap="butt"/><line data-wall="w19" data-axis="h" data-c="10.6" x1="206" y1="510" x2="268" y2="510" stroke="var(--wall)" stroke-opacity="1" stroke-width="12" stroke-linecap="butt"/><line data-wall="w20" data-axis="h" data-c="10.6" x1="256" y1="510" x2="278" y2="510" stroke="var(--wall)" stroke-opacity="1" stroke-width="12" stroke-linecap="butt"/><line data-wall="w20" data-axis="h" data-c="10.6" x1="326" y1="510" x2="374" y2="510" stroke="var(--wall)" stroke-opacity="1" stroke-width="12" stroke-linecap="butt"/><line data-wall="w20" data-axis="h" data-c="10.6" x1="518" y1="510" x2="564" y2="510" stroke="var(--wall)" stroke-opacity="1" stroke-width="12" stroke-linecap="butt"/><line data-wall="w21" data-axis="h" data-c="10.6" x1="552" y1="510" x2="598" y2="510" stroke="var(--wall)" stroke-opacity="1" stroke-width="12" stroke-linecap="butt"/><line data-wall="w21" data-axis="h" data-c="10.6" x1="678" y1="510" x2="756" y2="510" stroke="var(--wall)" stroke-opacity="1" stroke-width="12" stroke-linecap="butt"/><line data-wall="w22" data-axis="v" data-c="0" x1="78" y1="80" x2="78" y2="268" stroke="var(--wall)" stroke-opacity="1" stroke-width="12" stroke-linecap="butt"/><line data-wall="w23" data-axis="v" data-c="0" x1="78" y1="256" x2="78" y2="310" stroke="var(--wall)" stroke-opacity="1" stroke-width="12" stroke-linecap="butt"/><line data-wall="w23" data-axis="v" data-c="0" x1="78" y1="350" x2="78" y2="412" stroke="var(--wall)" stroke-opacity="1" stroke-width="12" stroke-linecap="butt"/><line data-wall="w24" data-axis="v" data-c="0" x1="78" y1="400" x2="78" y2="430" stroke="var(--wall)" stroke-opacity="1" stroke-width="12" stroke-linecap="butt"/><line data-wall="w24" data-axis="v" data-c="0" x1="78" y1="486" x2="78" y2="516" stroke="var(--wall)" stroke-opacity="1" stroke-width="12" stroke-linecap="butt"/><line data-wall="w38" data-axis="v" data-c="16.8" x1="750" y1="80" x2="750" y2="268" stroke="var(--wall)" stroke-opacity="1" stroke-width="12" stroke-linecap="butt"/><line data-wall="w39" data-axis="v" data-c="16.8" x1="750" y1="256" x2="750" y2="324" stroke="var(--wall)" stroke-opacity="1" stroke-width="12" stroke-linecap="butt"/><line data-wall="w40" data-axis="v" data-c="16.8" x1="750" y1="312" x2="750" y2="334" stroke="var(--wall)" stroke-opacity="1" stroke-width="12" stroke-linecap="butt"/><line data-wall="w40" data-axis="v" data-c="16.8" x1="750" y1="374" x2="750" y2="396" stroke="var(--wall)" stroke-opacity="1" stroke-width="12" stroke-linecap="butt"/><line data-wall="w41" data-axis="v" data-c="16.8" x1="750" y1="384" x2="750" y2="516" stroke="var(--wall)" stroke-opacity="1" stroke-width="12" stroke-linecap="butt"/><g class="door"><path d="M78 310 A40 40 0 0 1 118 350" fill="none" stroke="var(--muted)" stroke-width="1"/><line x1="78" y1="350" x2="118" y2="350" stroke="var(--wall)" stroke-width="2"/></g><text x="58" y="333" text-anchor="middle" class="tag" transform="rotate(-90 58 330)">ENTRANCE</text><g class="door"><path d="M262 326 A32 32 0 0 1 294 358" fill="none" stroke="var(--muted)" stroke-width="1"/><line x1="262" y1="358" x2="294" y2="358" stroke="var(--wall)" stroke-width="2"/></g><g class="door"><path d="M158 406 A32 32 0 0 1 126 438" fill="none" stroke="var(--muted)" stroke-width="1"/><line x1="126" y1="406" x2="126" y2="438" stroke="var(--wall)" stroke-width="2"/></g><g class="door"><path d="M198 262 A36 36 0 0 1 234 226" fill="none" stroke="var(--muted)" stroke-width="1"/><line x1="234" y1="262" x2="234" y2="226" stroke="var(--wall)" stroke-width="2"/></g><g class="door"><path d="M262 110 A32 32 0 0 1 294 142" fill="none" stroke="var(--muted)" stroke-width="1"/><line x1="262" y1="142" x2="294" y2="142" stroke="var(--wall)" stroke-width="2"/></g><g class="door"><path d="M262 190 A32 32 0 0 1 294 222" fill="none" stroke="var(--muted)" stroke-width="1"/><line x1="262" y1="222" x2="294" y2="222" stroke="var(--wall)" stroke-width="2"/></g><g class="door"><path d="M374 262 A36 36 0 0 1 410 226" fill="none" stroke="var(--muted)" stroke-width="1"/><line x1="410" y1="262" x2="410" y2="226" stroke="var(--wall)" stroke-width="2"/></g><g class="door"><path d="M518 262 A36 36 0 0 1 554 226" fill="none" stroke="var(--muted)" stroke-width="1"/><line x1="554" y1="262" x2="554" y2="226" stroke="var(--wall)" stroke-width="2"/></g><g class="door"><path d="M662 262 A36 36 0 0 1 698 226" fill="none" stroke="var(--muted)" stroke-width="1"/><line x1="698" y1="262" x2="698" y2="226" stroke="var(--wall)" stroke-width="2"/></g><g class="door"><path d="M734 390 A32 32 0 0 1 702 422" fill="none" stroke="var(--muted)" stroke-width="1"/><line x1="702" y1="390" x2="702" y2="422" stroke="var(--wall)" stroke-width="2"/></g><line x1="262" y1="262" x2="262" y2="318" stroke="var(--muted)" stroke-width="1" stroke-dasharray="4 3"/><line x1="358" y1="318" x2="422" y2="318" stroke="var(--muted)" stroke-width="1" stroke-dasharray="4 3"/><line x1="558" y1="366" x2="558" y2="430" stroke="var(--muted)" stroke-width="1" stroke-dasharray="4 3"/><g class="window"><line x1="126" y1="83" x2="214" y2="83" stroke="var(--wall)" stroke-width="1"/><line x1="126" y1="89" x2="214" y2="89" stroke="var(--wall)" stroke-width="1"/></g><g class="window"><line x1="390" y1="83" x2="462" y2="83" stroke="var(--wall)" stroke-width="1"/><line x1="390" y1="89" x2="462" y2="89" stroke="var(--wall)" stroke-width="1"/></g><g class="window"><line x1="534" y1="83" x2="606" y2="83" stroke="var(--wall)" stroke-width="1"/><line x1="534" y1="89" x2="606" y2="89" stroke="var(--wall)" stroke-width="1"/></g><g class="window"><line x1="678" y1="83" x2="718" y2="83" stroke="var(--wall)" stroke-width="1"/><line x1="678" y1="89" x2="718" y2="89" stroke="var(--wall)" stroke-width="1"/></g><g class="window"><line x1="278" y1="507" x2="326" y2="507" stroke="var(--wall)" stroke-width="1"/><line x1="278" y1="513" x2="326" y2="513" stroke="var(--wall)" stroke-width="1"/></g><g class="window"><line x1="374" y1="507" x2="518" y2="507" stroke="var(--wall)" stroke-width="1"/><line x1="374" y1="513" x2="518" y2="513" stroke="var(--wall)" stroke-width="1"/></g><g class="window"><line x1="598" y1="507" x2="678" y2="507" stroke="var(--wall)" stroke-width="1"/><line x1="598" y1="513" x2="678" y2="513" stroke="var(--wall)" stroke-width="1"/></g><g class="window"><line x1="118" y1="507" x2="206" y2="507" stroke="var(--wall)" stroke-width="1"/><line x1="118" y1="513" x2="206" y2="513" stroke="var(--wall)" stroke-width="1"/></g><g class="window"><line x1="75" y1="430" x2="75" y2="486" stroke="var(--wall)" stroke-width="1"/><line x1="81" y1="430" x2="81" y2="486" stroke="var(--wall)" stroke-width="1"/></g><g class="window"><line x1="747" y1="334" x2="747" y2="374" stroke="var(--wall)" stroke-width="1"/><line x1="753" y1="334" x2="753" y2="374" stroke="var(--wall)" stroke-width="1"/></g><text x="170" y="172" text-anchor="middle" class="rn">Suite parental</text><text x="170" y="186" text-anchor="middle" class="ra">18.4 m²</text><text x="306" y="128" text-anchor="middle" class="rn">WC suite</text><text x="306" y="142" text-anchor="middle" class="ra">4.1 m²</text><text x="306" y="216" text-anchor="middle" class="rn">Closet</text><text x="306" y="230" text-anchor="middle" class="ra">4.3 m²</text><text x="422" y="172" text-anchor="middle" class="rn">Quarto 1</text><text x="422" y="186" text-anchor="middle" class="ra">14.6 m²</text><text x="566" y="172" text-anchor="middle" class="rn">Quarto 2</text><text x="566" y="186" text-anchor="middle" class="ra">14.6 m²</text><text x="694" y="172" text-anchor="middle" class="rn">WC comum</text><text x="694" y="186" text-anchor="middle" class="ra">10.9 m²</text><text x="506" y="288" text-anchor="middle" class="rn">Distribuidor</text><text x="506" y="302" text-anchor="middle" class="ra">15.3 m²</text><text x="170" y="332" text-anchor="middle" class="rn">Hall</text><text x="170" y="346" text-anchor="middle" class="ra">15.3 m²</text><text x="170" y="456" text-anchor="middle" class="rn">Escritório</text><text x="170" y="470" text-anchor="middle" class="ra">10.5 m²</text><text x="302" y="356" text-anchor="middle" class="rn">WC social</text><text x="302" y="370" text-anchor="middle" class="ra">3.5 m²</text><text x="450" y="412" text-anchor="middle" class="rn">Sala comum</text><text x="450" y="426" text-anchor="middle" class="ra">29.4 m²</text><text x="654" y="448" text-anchor="middle" class="rn">Cozinha</text><text x="654" y="462" text-anchor="middle" class="ra">18.0 m²</text><text x="714" y="352" text-anchor="middle" class="rn">Despensa</text><text x="714" y="366" text-anchor="middle" class="ra">2.7 m²</text><g class="dims" stroke="var(--muted)" stroke-width="1"><line x1="78" y1="60" x2="750" y2="60"/><line x1="78" y1="55" x2="78" y2="65"/><line x1="750" y1="55" x2="750" y2="65"/><line x1="44" y1="86" x2="44" y2="510"/><line x1="39" y1="86" x2="49" y2="86"/><line x1="39" y1="510" x2="49" y2="510"/></g><text x="414" y="53" text-anchor="middle" class="dim">16.80 m</text><text x="36" y="298" text-anchor="middle" class="dim" transform="rotate(-90 36 298)">10.60 m</text><g transform="rotate(0 808 116)" stroke="var(--ink)" fill="var(--ink)"><line x1="808" y1="136" x2="808" y2="102" stroke-width="1.5"/><path d="M808 96 L803 107 L813 107 z" stroke="none"/></g><text x="808" y="150" text-anchor="middle" class="dim">N</text><g stroke="var(--ink)"><line x1="78" y1="662" x2="278" y2="662" stroke-width="2"/><line x1="78" y1="658" x2="78" y2="666" stroke-width="1"/><line x1="118" y1="658" x2="118" y2="666" stroke-width="1"/><line x1="158" y1="658" x2="158" y2="666" stroke-width="1"/><line x1="198" y1="658" x2="198" y2="666" stroke-width="1"/><line x1="238" y1="658" x2="238" y2="666" stroke-width="1"/><line x1="278" y1="658" x2="278" y2="666" stroke-width="1"/></g><text x="78" y="679" text-anchor="start" class="dim">0</text><text x="278" y="679" text-anchor="middle" class="dim">5 m</text><g class="finding"><title>warning wet.no_window: WC suite has no exterior window; plan mechanical extraction</title><circle cx="346.88" cy="124" r="9" fill="#e07b1a" fill-opacity=".9"/><text x="346.88" y="127.5" text-anchor="middle" class="mk">1</text></g><g class="finding"><title>warning wet.no_window: WC social has no exterior window; plan mechanical extraction</title><circle cx="346.24" cy="352" r="9" fill="#e07b1a" fill-opacity=".9"/><text x="346.24" y="355.5" text-anchor="middle" class="mk">2</text></g><text x="78" y="24" class="title">Casa T3</text></svg>