<svg xmlns="http://www.w3.org/2000/svg" viewBox="0 0 642 692" width="642" height="692" class="floorplan theme-auto" role="img" aria-label="Floor plan Casa com Piscina, 11.40 by 10.20 metres, 5 rooms"><style>svg.floorplan{--bg:#ffffff;--wall:#1b1b1b;--ink:#333333;--muted:#8a8a8a;--accent:#2f9e5b;--water:#2f7fd0;--fill-alpha:.14;font-family:ui-sans-serif, system-ui, -apple-system, 'Segoe UI', Helvetica, Arial, sans-serif}
svg.floorplan.theme-dark{--bg:#121212;--wall:#ededed;--ink:#d6d6d6;--muted:#8f8f8f;--water:#4f9ae8;--fill-alpha:.28}
@media (prefers-color-scheme:dark){svg.floorplan.theme-auto{--bg:#121212;--wall:#ededed;--ink:#d6d6d6;--muted:#8f8f8f;--water:#4f9ae8;--fill-alpha:.28}}
.rn{font-size:12px;font-weight:600;fill:var(--ink)}
.ra{font-size:10.5px;fill:var(--muted)}
.rk{font-size:10px;font-weight:700;fill:var(--ink)}
.dim{font-size:10.5px;fill:var(--muted);font-variant-numeric:tabular-nums}
.tag{font-size:8.5px;font-weight:700;letter-spacing:.08em;fill:var(--accent)}
.fx{font-size:9.5px;font-weight:600;fill:var(--muted)}
.mk{font-size:10px;font-weight:700;fill:#fff}
.title{font-size:15px;font-weight:700;fill:var(--ink)}</style><rect width="100%" height="100%" fill="var(--bg)"/><polygon points="78,494 534,494 534,622 78,622" fill="var(--accent)" fill-opacity=".08" stroke="var(--accent)" stroke-width="1" stroke-dasharray="5 4"/><line data-outdoor="deck" data-edge="0" data-axis="h" x1="78" y1="494" x2="534" y2="494" stroke="transparent" stroke-width="9" stroke-linecap="butt" pointer-events="stroke"/><line data-outdoor="deck" data-edge="1" data-axis="v" x1="534" y1="494" x2="534" y2="622" stroke="transparent" stroke-width="9" stroke-linecap="butt" pointer-events="stroke"/><line data-outdoor="deck" data-edge="2" data-axis="h" x1="534" y1="622" x2="78" y2="622" stroke="transparent" stroke-width="9" stroke-linecap="butt" pointer-events="stroke"/><line data-outdoor="deck" data-edge="3" data-axis="v" x1="78" y1="622" x2="78" y2="494" stroke="transparent" stroke-width="9" stroke-linecap="butt" pointer-events="stroke"/><text x="306" y="556" text-anchor="middle" class="rn">Deck</text><text x="306" y="570" text-anchor="middle" class="ra">36.5 m²</text><g class="room" data-id="spa"><title>Sala da piscina — 45.4 m²</title><polygon points="78,86 270,86 270,494 78,494" fill="#2f6fdb" fill-opacity="var(--fill-alpha)"/></g><g class="room" data-id="hall"><title>Hall — 16.7 m²</title><polygon points="270,86 390,86 390,326 270,326" fill="#e07b1a" fill-opacity="var(--fill-alpha)"/></g><g class="room" data-id="cozinha"><title>Cozinha — 19.6 m²</title><polygon points="390,86 534,86 534,326 390,326" fill="#e07b1a" fill-opacity="var(--fill-alpha)"/></g><g class="room" data-id="wc"><title>WC — 11.5 m²</title><polygon points="270,326 390,326 390,494 270,494" fill="#e07b1a" fill-opacity="var(--fill-alpha)"/></g><g class="room" data-id="sala"><title>Sala — 13.5 m²</title><polygon points="390,326 534,326 534,494 390,494" fill="#e07b1a" fill-opacity="var(--fill-alpha)"/></g><g class="fixture" data-fixture="0" data-type="pool"><title>Piscina interior · 1.4 m deep — 23.68 m²</title><polygon data-fixture="0" data-body="1" points="110,126 238,126 238,422 110,422" fill="var(--water)" fill-opacity=".30" stroke="var(--water)" stroke-width="1" pointer-events="fill"/><text x="174" y="139" text-anchor="middle" class="fx">Piscina interior</text><line data-fixture="0" data-side="west" data-axis="v" x1="110" y1="126" x2="110" y2="422" stroke="transparent" stroke-width="8" pointer-events="stroke"/><line data-fixture="0" data-side="east" data-axis="v" x1="238" y1="126" x2="238" y2="422" stroke="transparent" stroke-width="8" pointer-events="stroke"/><line data-fixture="0" data-side="north" data-axis="h" x1="110" y1="126" x2="238" y2="126" stroke="transparent" stroke-width="8" pointer-events="stroke"/><line data-fixture="0" data-side="south" data-axis="h" x1="110" y1="422" x2="238" y2="422" stroke="transparent" stroke-width="8" pointer-events="stroke"/></g><g class="fixture" data-fixture="1" data-type="pool"><title>Piscina exterior · 1.6 m deep — 11.04 m²</title><polygon data-fixture="1" data-body="1" points="294,510 478,510 478,606 294,606" fill="var(--water)" fill-opacity=".30" stroke="var(--water)" stroke-width="1" pointer-events="fill"/><text x="386" y="523" text-anchor="middle" class="fx">Piscina exterior</text><line data-fixture="1" data-side="west" data-axis="v" x1="294" y1="510" x2="294" y2="606" stroke="transparent" stroke-width="8" pointer-events="stroke"/><line data-fixture="1" data-side="east" data-axis="v" x1="478" y1="510" x2="478" y2="606" stroke="transparent" stroke-width="8" pointer-events="stroke"/><line data-fixture="1" data-side="north" data-axis="h" x1="294" y1="510" x2="478" y2="510" stroke="transparent" stroke-width="8" pointer-events="stroke"/><line data-fixture="1" data-side="south" data-axis="h" x1="294" y1="606" x2="478" y2="606" stroke="transparent" stroke-width="8" pointer-events="stroke"/></g><g class="fixture" data-fixture="2" data-type="bath"><title>Banheira — 1.28 m²</title><polygon data-fixture="2" data-body="1" points="276,332 344,332 344,362 276,362" fill="var(--muted)" fill-opacity=".16" stroke="var(--muted)" stroke-width="1" stroke-dasharray="3 2" pointer-events="fill"/><text x="310" y="345" text-anchor="middle" class="fx">Banheira</text><line data-fixture="2" data-side="west" data-axis="v" x1="276" y1="332" x2="276" y2="362" stroke="transparent" stroke-width="8" pointer-events="stroke"/><line data-fixture="2" data-side="east" data-axis="v" x1="344" y1="332" x2="344" y2="362" stroke="transparent" stroke-width="8" pointer-events="stroke"/><line data-fixture="2" data-side="north" data-axis="h" x1="276" y1="332" x2="344" y2="332" stroke="transparent" stroke-width="8" pointer-events="stroke"/><line data-fixture="2" data-side="south" data-axis="h" x1="276" y1="362" x2="344" y2="362" stroke="transparent" stroke-width="8" pointer-events="stroke"/></g><g class="fixture" data-fixture="3" data-type="wc"><title>Sanita — 0.28 m²</title><polygon data-fixture="3" data-body="1" points="370,332 386,332 386,360 370,360" fill="var(--muted)" fill-opacity=".16" stroke="var(--muted)" stroke-width="1" stroke-dasharray="3 2" pointer-events="fill"/><line data-fixture="3" data-side="west" data-axis="v" x1="370" y1="332" x2="370" y2="360" stroke="transparent" stroke-width="8" pointer-events="stroke"/><line data-fixture="3" data-side="east" data-axis="v" x1="386" y1="332" x2="386" y2="360" stroke="transparent" stroke-width="8" pointer-events="stroke"/><line data-fixture="3" data-side="north" data-axis="h" x1="370" y1="332" x2="386" y2="332" stroke="transparent" stroke-width="8" pointer-events="stroke"/><line data-fixture="3" data-side="south" data-axis="h" x1="370" y1="360" x2="386" y2="360" stroke="transparent" stroke-width="8" pointer-events="stroke"/></g><g class="fixture" data-fixture="4" data-type="sink"><title>Lavatório — 0.30 m²</title><polygon data-fixture="4" data-body="1" points="276,454 300,454 300,474 276,474" fill="var(--muted)" fill-opacity=".16" stroke="var(--muted)" stroke-width="1" stroke-dasharray="3 2" pointer-events="fill"/><line data-fixture="4" data-side="west" data-axis="v" x1="276" y1="454" x2="276" y2="474" stroke="transparent" stroke-width="8" pointer-events="stroke"/><line data-fixture="4" data-side="east" data-axis="v" x1="300" y1="454" x2="300" y2="474" stroke="transparent" stroke-width="8" pointer-events="stroke"/><line data-fixture="4" data-side="north" data-axis="h" x1="276" y1="454" x2="300" y2="454" stroke="transparent" stroke-width="8" pointer-events="stroke"/><line data-fixture="4" data-side="south" data-axis="h" x1="276" y1="474" x2="300" y2="474" stroke="transparent" stroke-width="8" pointer-events="stroke"/></g><g class="fixture" data-fixture="5" data-type="counter"><title>Bancada — 1.69 m²</title><polygon data-fixture="5" data-body="1" points="398,102 502,102 502,128 398,128" fill="var(--muted)" fill-opacity=".16" stroke="var(--muted)" stroke-width="1" stroke-dasharray="3 2" pointer-events="fill"/><text x="450" y="115" text-anchor="middle" class="fx">Bancada</text><line data-fixture="5" data-side="west" data-axis="v" x1="398" y1="102" x2="398" y2="128" stroke="transparent" stroke-width="8" pointer-events="stroke"/><line data-fixture="5" data-side="east" data-axis="v" x1="502" y1="102" x2="502" y2="128" stroke="transparent" stroke-width="8" pointer-events="stroke"/><line data-fixture="5" data-side="north" data-axis="h" x1="398" y1="102" x2="502" y2="102" stroke="transparent" stroke-width="8" pointer-events="stroke"/><line data-fixture="5" data-side="south" data-axis="h" x1="398" y1="128" x2="502" y2="128" stroke="transparent" stroke-width="8" pointer-events="stroke"/></g><g class="fixture" data-fixture="6" data-type="island"><title>Ilha — 1.80 m²</title><polygon data-fixture="6" data-body="1" points="434,238 514,238 514,274 434,274" fill="var(--muted)" fill-opacity=".16" stroke="var(--muted)" stroke-width="1" stroke-dasharray="3 2" pointer-events="fill"/><text x="474" y="251" text-anchor="middle" class="fx">Ilha</text><line data-fixture="6" data-side="west" data-axis="v" x1="434" y1="238" x2="434" y2="274" stroke="transparent" stroke-width="8" pointer-events="stroke"/><line data-fixture="6" data-side="east" data-axis="v" x1="514" y1="238" x2="514" y2="274" stroke="transparent" stroke-width="8" pointer-events="stroke"/><line data-fixture="6" data-side="north" data-axis="h" x1="434" y1="238" x2="514" y2="238" stroke="transparent" stroke-width="8" pointer-events="stroke"/><line data-fixture="6" data-side="south" data-axis="h" x1="434" y1="274" x2="514" y2="274" stroke="transparent" stroke-width="8" pointer-events="stroke"/></g><line data-wall="w4" data-axis="h" data-c="6" x1="267.6" y1="326" x2="314" y2="326" stroke="var(--wall)" stroke-opacity=".9" stroke-width="4.8" stroke-linecap="butt"/><line data-wall="w4" data-axis="h" data-c="6" x1="346" y1="326" x2="392.4" y2="326" stroke="var(--wall)" stroke-opacity=".9" stroke-width="4.8" stroke-linecap="butt"/><line data-wall="w5" data-axis="h" data-c="6" x1="387.6" y1="326" x2="438" y2="326" stroke="var(--wall)" stroke-opacity=".9" stroke-width="4.8" stroke-linecap="butt"/><line data-wall="w5" data-axis="h" data-c="6" x1="486" y1="326" x2="536.4" y2="326" stroke="var(--wall)" stroke-opacity=".9" stroke-width="4.8" stroke-linecap="butt"/><line data-wall="w10" data-axis="v" data-c="4.8" x1="270" y1="83.6" x2="270" y2="186" stroke="var(--wall)" stroke-opacity=".9" stroke-width="4.8" stroke-linecap="butt"/><line data-wall="w10" data-axis="v" data-c="4.8" x1="270" y1="226" x2="270" y2="328.4" stroke="var(--wall)" stroke-opacity=".9" stroke-width="4.8" stroke-linecap="butt"/><line data-wall="w11" data-axis="v" data-c="4.8" x1="270" y1="323.6" x2="270" y2="496.4" stroke="var(--wall)" stroke-opacity=".9" stroke-width="4.8" stroke-linecap="butt"/><line data-wall="w12" data-axis="v" data-c="7.8" x1="390" y1="83.6" x2="390" y2="188" stroke="var(--wall)" stroke-opacity=".9" stroke-width="4.8" stroke-linecap="butt"/><line data-wall="w12" data-axis="v" data-c="7.8" x1="390" y1="224" x2="390" y2="328.4" stroke="var(--wall)" stroke-opacity=".9" stroke-width="4.8" stroke-linecap="butt"/><line data-wall="w13" data-axis="v" data-c="7.8" x1="390" y1="323.6" x2="390" y2="496.4" stroke="var(--wall)" stroke-opacity=".9" stroke-width="4.8" stroke-linecap="butt"/><line data-wall="w1" data-axis="h" data-c="0" x1="72" y1="86" x2="276" y2="86" stroke="var(--wall)" stroke-opacity="1" stroke-width="12" stroke-linecap="butt"/><line data-wall="w2" data-axis="h" data-c="0" x1="264" y1="86" x2="310" y2="86" stroke="var(--wall)" stroke-opacity="1" stroke-width="12" stroke-linecap="butt"/><line data-wall="w2" data-axis="h" data-c="0" x1="350" y1="86" x2="396" y2="86" stroke="var(--wall)" stroke-opacity="1" stroke-width="12" stroke-linecap="butt"/><line data-wall="w3" data-axis="h" data-c="0" x1="384" y1="86" x2="540" y2="86" stroke="var(--wall)" stroke-opacity="1" stroke-width="12" stroke-linecap="butt"/><line data-wall="w6" data-axis="h" data-c="10.2" x1="72" y1="494" x2="276" y2="494" stroke="var(--wall)" stroke-opacity="1" stroke-width="12" stroke-linecap="butt"/><line data-wall="w7" data-axis="h" data-c="10.2" x1="264" y1="494" x2="318" y2="494" stroke="var(--wall)" stroke-opacity="1" stroke-width="12" stroke-linecap="butt"/><line data-wall="w7" data-axis="h" data-c="10.2" x1="342" y1="494" x2="396" y2="494" stroke="var(--wall)" stroke-opacity="1" stroke-width="12" stroke-linecap="butt"/><line data-wall="w8" data-axis="h" data-c="10.2" x1="384" y1="494" x2="438" y2="494" stroke="var(--wall)" stroke-opacity="1" stroke-width="12" stroke-linecap="butt"/><line data-wall="w8" data-axis="h" data-c="10.2" x1="486" y1="494" x2="540" y2="494" stroke="var(--wall)" stroke-opacity="1" stroke-width="12" stroke-linecap="butt"/><line data-wall="w9" data-axis="v" data-c="0" x1="78" y1="80" x2="78" y2="230" stroke="var(--wall)" stroke-opacity="1" stroke-width="12" stroke-linecap="butt"/><line data-wall="w9" data-axis="v" data-c="0" x1="78" y1="350" x2="78" y2="500" stroke="var(--wall)" stroke-opacity="1" stroke-width="12" stroke-linecap="butt"/><line data-wall="w14" data-axis="v" data-c="11.4" x1="534" y1="80" x2="534" y2="174" stroke="var(--wall)" stroke-opacity="1" stroke-width="12" stroke-linecap="butt"/><line data-wall="w14" data-axis="v" data-c="11.4" x1="534" y1="238" x2="534" y2="332" stroke="var(--wall)" stroke-opacity="1" stroke-width="12" stroke-linecap="butt"/><line data-wall="w15" data-axis="v" data-c="11.4" x1="534" y1="320" x2="534" y2="374" stroke="var(--wall)" stroke-opacity="1" stroke-width="12" stroke-linecap="butt"/><line data-wall="w15" data-axis="v" data-c="11.4" x1="534" y1="446" x2="534" y2="500" stroke="var(--wall)" stroke-opacity="1" stroke-width="12" stroke-linecap="butt"/><g class="door"><path d="M350 86 A40 40 0 0 1 310 126" fill="none" stroke="var(--muted)" stroke-width="1"/><line x1="310" y1="86" x2="310" y2="126" stroke="var(--wall)" stroke-width="2"/></g><text x="330" y="69" text-anchor="middle" class="tag">ENTRANCE</text><g class="door"><path d="M270 226 A40 40 0 0 0 310 186" fill="none" stroke="var(--muted)" stroke-width="1"/><line x1="270" y1="186" x2="310" y2="186" stroke="var(--wall)" stroke-width="2"/></g><g class="door"><path d="M390 224 A36 36 0 0 0 426 188" fill="none" stroke="var(--muted)" stroke-width="1"/><line x1="390" y1="188" x2="426" y2="188" stroke="var(--wall)" stroke-width="2"/></g><g class="door"><path d="M346 326 A32 32 0 0 0 314 294" fill="none" stroke="var(--muted)" stroke-width="1"/><line x1="314" y1="326" x2="314" y2="294" stroke="var(--wall)" stroke-width="2"/></g><g class="door"><path d="M486 326 A48 48 0 0 1 438 374" fill="none" stroke="var(--muted)" stroke-width="1"/><line x1="438" y1="326" x2="438" y2="374" stroke="var(--wall)" stroke-width="2"/></g><g class="door"><path d="M486 494 A48 48 0 0 0 438 446" fill="none" stroke="var(--muted)" stroke-width="1"/><line x1="438" y1="494" x2="438" y2="446" stroke="var(--wall)" stroke-width="2"/></g><g class="window"><line x1="75" y1="230" x2="75" y2="350" stroke="var(--wall)" stroke-width="1"/><line x1="81" y1="230" x2="81" y2="350" stroke="var(--wall)" stroke-width="1"/></g><g class="window"><line x1="531" y1="174" x2="531" y2="238" stroke="var(--wall)" stroke-width="1"/><line x1="537" y1="174" x2="537" y2="238" stroke="var(--wall)" stroke-width="1"/></g><g class="window"><line x1="531" y1="374" x2="531" y2="446" stroke="var(--wall)" stroke-width="1"/><line x1="537" y1="374" x2="537" y2="446" stroke="var(--wall)" stroke-width="1"/></g><g class="window"><line x1="318" y1="491" x2="342" y2="491" stroke="var(--wall)" stroke-width="1"/><line x1="318" y1="497" x2="342" y2="497" stroke="var(--wall)" stroke-width="1"/></g><text x="174" y="456" text-anchor="middle" class="rn">Sala da piscina</text><text x="174" y="470" text-anchor="middle" class="ra">45.4 m²</text><text x="330" y="204" text-anchor="middle" class="rn">Hall</text><text x="330" y="218" text-anchor="middle" class="ra">16.7 m²</text><text x="462" y="181" text-anchor="middle" class="rn">Cozinha</text><text x="462" y="195" text-anchor="middle" class="ra">19.6 m²</text><text x="345" y="426" text-anchor="middle" class="rn">WC</text><text x="345" y="440" text-anchor="middle" class="ra">11.5 m²</text><text x="462" y="408" text-anchor="middle" class="rn">Sala</text><text x="462" y="422" text-anchor="middle" class="ra">13.5 m²</text><g class="dims" stroke="var(--muted)" stroke-width="1"><line x1="78" y1="60" x2="534" y2="60"/><line x1="78" y1="55" x2="78" y2="65"/><line x1="534" y1="55" x2="534" y2="65"/><line x1="44" y1="86" x2="44" y2="494"/><line x1="39" y1="86" x2="49" y2="86"/><line x1="39" y1="494" x2="49" y2="494"/></g><text x="306" y="53" text-anchor="middle" class="dim">11.40 m</text><text x="36" y="290" text-anchor="middle" class="dim" transform="rotate(-90 36 290)">10.20 m</text><g transform="rotate(0 592 116)" stroke="var(--ink)" fill="var(--ink)"><line x1="592" y1="136" x2="592" y2="102" stroke-width="1.5"/><path d="M592 96 L587 107 L597 107 z" stroke="none"/></g><text x="592" y="150" text-anchor="middle" class="dim">N</text><g stroke="var(--ink)"><line x1="78" y1="662" x2="278" y2="662" stroke-width="2"/><line x1="78" y1="658" x2="78" y2="666" stroke-width="1"/><line x1="118" y1="658" x2="118" y2="666" stroke-width="1"/><line x1="158" y1="658" x2="158" y2="666" stroke-width="1"/><line x1="198" y1="658" x2="198" y2="666" stroke-width="1"/><line x1="238" y1="658" x2="238" y2="666" stroke-width="1"/><line x1="278" y1="658" x2="278" y2="666" stroke-width="1"/></g><text x="78" y="679" text-anchor="start" class="dim">0</text><text x="278" y="679" text-anchor="middle" class="dim">5 m</text><text x="78" y="24" class="title">Casa com Piscina</text></svg>