<svg xmlns="http://www.w3.org/2000/svg" viewBox="0 0 1392.16 1099.08" width="1392.16" height="1099.08" class="floorplan theme-auto" role="img" aria-label="Floor plan Casa em V, 30.15 by 22.58 metres, 10 rooms"><style>svg.floorplan{--bg:#ffffff;--wall:#1b1b1b;--ink:#333333;--muted:#8a8a8a;--accent:#2f9e5b;--water:#2f7fd0;--fill-alpha:.14;font-family:ui-sans-serif, system-ui, -apple-system, 'Segoe UI', Helvetica, Arial, sans-serif}
svg.floorplan.theme-dark{--bg:#121212;--wall:#ededed;--ink:#d6d6d6;--muted:#8f8f8f;--water:#4f9ae8;--fill-alpha:.28}
@media (prefers-color-scheme:dark){svg.floorplan.theme-auto{--bg:#121212;--wall:#ededed;--ink:#d6d6d6;--muted:#8f8f8f;--water:#4f9ae8;--fill-alpha:.28}}
.rn{font-size:12px;font-weight:600;fill:var(--ink)}
.ra{font-size:10.5px;fill:var(--muted)}
.rk{font-size:10px;font-weight:700;fill:var(--ink)}
.dim{font-size:10.5px;fill:var(--muted);font-variant-numeric:tabular-nums}
.tag{font-size:8.5px;font-weight:700;letter-spacing:.08em;fill:var(--accent)}
.fx{font-size:9.5px;font-weight:600;fill:var(--muted)}
.mk{font-size:10px;font-weight:700;fill:#fff}
.title{font-size:15px;font-weight:700;fill:var(--ink)}</style><rect width="100%" height="100%" fill="var(--bg)"/><polygon points="537.08,557.12 457.08,418.56 457.08,237.12 937.08,237.12 937.08,418.56 857.08,557.12" fill="var(--accent)" fill-opacity=".08" stroke="var(--accent)" stroke-width="1" stroke-dasharray="5 4"/><line data-outdoor="deck" data-edge="1" data-axis="v" x1="457.08" y1="418.56" x2="457.08" y2="237.12" stroke="transparent" stroke-width="9" stroke-linecap="butt" pointer-events="stroke"/><line data-outdoor="deck" data-edge="2" data-axis="h" x1="457.08" y1="237.12" x2="937.08" y2="237.12" stroke="transparent" stroke-width="9" stroke-linecap="butt" pointer-events="stroke"/><line data-outdoor="deck" data-edge="3" data-axis="v" x1="937.08" y1="237.12" x2="937.08" y2="418.56" stroke="transparent" stroke-width="9" stroke-linecap="butt" pointer-events="stroke"/><line data-outdoor="deck" data-edge="5" data-axis="h" x1="857.08" y1="557.12" x2="537.08" y2="557.12" stroke="transparent" stroke-width="9" stroke-linecap="butt" pointer-events="stroke"/><text x="697.08" y="402.28" text-anchor="middle" class="rn">Deck da piscina</text><text x="697.08" y="416.28" text-anchor="middle" class="ra">89.1 m²</text><polygon points="265.08,86 457.08,418.56 457.08,237.12 937.08,237.12 937.08,418.56 1097.08,141.44" fill="var(--accent)" fill-opacity=".08" stroke="var(--accent)" stroke-width="1" stroke-dasharray="5 4"/><line data-outdoor="patio" data-edge="1" data-axis="v" x1="457.08" y1="418.56" x2="457.08" y2="237.12" stroke="transparent" stroke-width="9" stroke-linecap="butt" pointer-events="stroke"/><line data-outdoor="patio" data-edge="2" data-axis="h" x1="457.08" y1="237.12" x2="937.08" y2="237.12" stroke="transparent" stroke-width="9" stroke-linecap="butt" pointer-events="stroke"/><line data-outdoor="patio" data-edge="3" data-axis="v" x1="937.08" y1="237.12" x2="937.08" y2="418.56" stroke="transparent" stroke-width="9" stroke-linecap="butt" pointer-events="stroke"/><text x="691.76" y="254.48" text-anchor="middle" class="rn">Jardim</text><text x="691.76" y="268.48" text-anchor="middle" class="ra">70.3 m²</text><g class="room" data-id="sala"><title>Sala e cozinha — 131.1 m²</title><polygon points="537.08,557.12 857.08,557.12 1044.16,665.12 857.08,989.08 537.08,989.08 350,665.12" fill="#2f6fdb" fill-opacity="var(--fill-alpha)"/></g><g class="room" data-id="corr_w"><title>Corredor poente — 11.0 m²</title><polygon points="537.08,557.12 349.08,231.48 300.6,259.48 488.6,585.12" fill="#e07b1a" fill-opacity="var(--fill-alpha)"/></g><g class="room" data-id="wc_w"><title>Casa de banho — 8.6 m²</title><polygon points="488.6,585.12 440.6,502 302,582 350,665.12" fill="#e07b1a" fill-opacity="var(--fill-alpha)"/></g><g class="room" data-id="quarto1"><title>Quarto 1 — 13.2 m²</title><polygon points="440.6,502 368.6,377.28 230,457.28 302,582" fill="#e07b1a" fill-opacity="var(--fill-alpha)"/></g><g class="room" data-id="quarto2"><title>Quarto 2 — 12.4 m²</title><polygon points="368.6,377.28 300.6,259.48 162,339.48 230,457.28" fill="#e07b1a" fill-opacity="var(--fill-alpha)"/></g><g class="room" data-id="suite"><title>Suite — 20.3 m²</title><polygon points="349.08,231.48 265.08,86 78,194 162,339.48" fill="#e07b1a" fill-opacity="var(--fill-alpha)"/></g><g class="room" data-id="corr_e"><title>Corredor nascente — 7.5 m²</title><polygon points="857.08,557.12 985.08,335.4 1033.56,363.4 905.56,585.12" fill="#2f9e5b" fill-opacity="var(--fill-alpha)"/></g><g class="room" data-id="lavandaria"><title>Lavandaria — 8.6 m²</title><polygon points="905.56,585.12 953.56,502 1092.16,582 1044.16,665.12" fill="#2f9e5b" fill-opacity="var(--fill-alpha)"/></g><g class="room" data-id="escritorio"><title>Escritório — 14.7 m²</title><polygon points="953.56,502 1033.56,363.4 1172.16,443.4 1092.16,582" fill="#2f9e5b" fill-opacity="var(--fill-alpha)"/></g><g class="room" data-id="brincar"><title>Sala de brincar — 27.5 m²</title><polygon points="985.08,335.4 1097.08,141.44 1284.16,249.44 1172.16,443.4" fill="#2f9e5b" fill-opacity="var(--fill-alpha)"/></g><g class="fixture" data-fixture="0" data-type="pool"><title>Pool — 40.00 m²</title><polygon data-fixture="0" data-body="1" points="497.08,277.12 897.08,277.12 897.08,437.12 497.08,437.12" fill="var(--water)" fill-opacity=".30" stroke="var(--water)" stroke-width="1" pointer-events="fill"/><text x="697.08" y="290.12" text-anchor="middle" class="fx">Pool</text><line data-fixture="0" data-side="west" data-axis="v" x1="497.08" y1="277.12" x2="497.08" y2="437.12" stroke="transparent" stroke-width="8" pointer-events="stroke"/><line data-fixture="0" data-side="east" data-axis="v" x1="897.08" y1="277.12" x2="897.08" y2="437.12" stroke="transparent" stroke-width="8" pointer-events="stroke"/><line data-fixture="0" data-side="north" data-axis="h" x1="497.08" y1="277.12" x2="897.08" y2="277.12" stroke="transparent" stroke-width="8" pointer-events="stroke"/><line data-fixture="0" data-side="south" data-axis="h" x1="497.08" y1="437.12" x2="897.08" y2="437.12" stroke="transparent" stroke-width="8" pointer-events="stroke"/></g><g class="fixture" data-fixture="1" data-type="counter"><title>Bancada — 2.73 m²</title><polygon data-fixture="1" data-body="1" points="669.08,959.08 851.08,959.08 851.08,983.08 669.08,983.08" fill="var(--muted)" fill-opacity=".16" stroke="var(--muted)" stroke-width="1" stroke-dasharray="3 2" pointer-events="fill"/><text x="760.08" y="972.08" text-anchor="middle" class="fx">Bancada</text><line data-fixture="1" data-side="west" data-axis="v" x1="669.08" y1="959.08" x2="669.08" y2="983.08" stroke="transparent" stroke-width="8" pointer-events="stroke"/><line data-fixture="1" data-side="east" data-axis="v" x1="851.08" y1="959.08" x2="851.08" y2="983.08" stroke="transparent" stroke-width="8" pointer-events="stroke"/><line data-fixture="1" data-side="north" data-axis="h" x1="669.08" y1="959.08" x2="851.08" y2="959.08" stroke="transparent" stroke-width="8" pointer-events="stroke"/><line data-fixture="1" data-side="south" data-axis="h" x1="669.08" y1="983.08" x2="851.08" y2="983.08" stroke="transparent" stroke-width="8" pointer-events="stroke"/></g><g class="fixture" data-fixture="2" data-type="island"><title>Ilha — 2.40 m²</title><polygon data-fixture="2" data-body="1" points="693.08,853.08 789.08,853.08 789.08,893.08 693.08,893.08" fill="var(--muted)" fill-opacity=".16" stroke="var(--muted)" stroke-width="1" stroke-dasharray="3 2" pointer-events="fill"/><text x="741.08" y="866.08" text-anchor="middle" class="fx">Ilha</text><line data-fixture="2" data-side="west" data-axis="v" x1="693.08" y1="853.08" x2="693.08" y2="893.08" stroke="transparent" stroke-width="8" pointer-events="stroke"/><line data-fixture="2" data-side="east" data-axis="v" x1="789.08" y1="853.08" x2="789.08" y2="893.08" stroke="transparent" stroke-width="8" pointer-events="stroke"/><line data-fixture="2" data-side="north" data-axis="h" x1="693.08" y1="853.08" x2="789.08" y2="853.08" stroke="transparent" stroke-width="8" pointer-events="stroke"/><line data-fixture="2" data-side="south" data-axis="h" x1="693.08" y1="893.08" x2="789.08" y2="893.08" stroke="transparent" stroke-width="8" pointer-events="stroke"/></g><path data-wall="w6" d="M162 339.48 L300.6 259.48" fill="none" stroke="var(--wall)" stroke-opacity=".9" stroke-width="4.8" stroke-linecap="butt" stroke-linejoin="miter" stroke-miterlimit="8"/><path data-wall="w8" d="M230 457.28 L368.6 377.28" fill="none" stroke="var(--wall)" stroke-opacity=".9" stroke-width="4.8" stroke-linecap="butt" stroke-linejoin="miter" stroke-miterlimit="8"/><path data-wall="w10" d="M300.6 259.48 L309.24 254.48" fill="none" stroke="var(--wall)" stroke-opacity=".9" stroke-width="4.8" stroke-linecap="butt" stroke-linejoin="miter" stroke-miterlimit="8"/><path data-wall="w10" d="M340.44 236.48 L349.08 231.48" fill="none" stroke="var(--wall)" stroke-opacity=".9" stroke-width="4.8" stroke-linecap="butt" stroke-linejoin="miter" stroke-miterlimit="8"/><path data-wall="w11" d="M300.6 259.48 L325.6 302.8" fill="none" stroke="var(--wall)" stroke-opacity=".9" stroke-width="4.8" stroke-linecap="butt" stroke-linejoin="miter" stroke-miterlimit="8"/><path data-wall="w11" d="M343.6 334 L368.6 377.28" fill="none" stroke="var(--wall)" stroke-opacity=".9" stroke-width="4.8" stroke-linecap="butt" stroke-linejoin="miter" stroke-miterlimit="8"/><path data-wall="w13" d="M302 582 L440.6 502" fill="none" stroke="var(--wall)" stroke-opacity=".9" stroke-width="4.8" stroke-linecap="butt" stroke-linejoin="miter" stroke-miterlimit="8"/><path data-wall="w15" d="M350 665.12 L488.6 585.12" fill="none" stroke="var(--wall)" stroke-opacity=".9" stroke-width="4.8" stroke-linecap="butt" stroke-linejoin="miter" stroke-miterlimit="8"/><path data-wall="w17" d="M368.6 377.28 L395.6 424.04" fill="none" stroke="var(--wall)" stroke-opacity=".9" stroke-width="4.8" stroke-linecap="butt" stroke-linejoin="miter" stroke-miterlimit="8"/><path data-wall="w17" d="M413.6 455.24 L440.6 502" fill="none" stroke="var(--wall)" stroke-opacity=".9" stroke-width="4.8" stroke-linecap="butt" stroke-linejoin="miter" stroke-miterlimit="8"/><path data-wall="w18" d="M440.6 502 L456.6 529.72" fill="none" stroke="var(--wall)" stroke-opacity=".9" stroke-width="4.8" stroke-linecap="butt" stroke-linejoin="miter" stroke-miterlimit="8"/><path data-wall="w18" d="M472.6 557.44 L488.6 585.12" fill="none" stroke="var(--wall)" stroke-opacity=".9" stroke-width="4.8" stroke-linecap="butt" stroke-linejoin="miter" stroke-miterlimit="8"/><path data-wall="w20" d="M488.6 585.12 L497.24 580.12" fill="none" stroke="var(--wall)" stroke-opacity=".9" stroke-width="4.8" stroke-linecap="butt" stroke-linejoin="miter" stroke-miterlimit="8"/><path data-wall="w20" d="M528.44 562.12 L537.08 557.12" fill="none" stroke="var(--wall)" stroke-opacity=".9" stroke-width="4.8" stroke-linecap="butt" stroke-linejoin="miter" stroke-miterlimit="8"/><path data-wall="w21" d="M857.08 557.12 L865.72 562.12" fill="none" stroke="var(--wall)" stroke-opacity=".9" stroke-width="4.8" stroke-linecap="butt" stroke-linejoin="miter" stroke-miterlimit="8"/><path data-wall="w21" d="M896.92 580.12 L905.56 585.12" fill="none" stroke="var(--wall)" stroke-opacity=".9" stroke-width="4.8" stroke-linecap="butt" stroke-linejoin="miter" stroke-miterlimit="8"/><path data-wall="w24" d="M905.56 585.12 L921.56 557.4" fill="none" stroke="var(--wall)" stroke-opacity=".9" stroke-width="4.8" stroke-linecap="butt" stroke-linejoin="miter" stroke-miterlimit="8"/><path data-wall="w24" d="M937.56 529.68 L953.56 502" fill="none" stroke="var(--wall)" stroke-opacity=".9" stroke-width="4.8" stroke-linecap="butt" stroke-linejoin="miter" stroke-miterlimit="8"/><path data-wall="w25" d="M905.56 585.12 L1044.16 665.12" fill="none" stroke="var(--wall)" stroke-opacity=".9" stroke-width="4.8" stroke-linecap="butt" stroke-linejoin="miter" stroke-miterlimit="8"/><path data-wall="w27" d="M953.56 502 L984.56 448.28" fill="none" stroke="var(--wall)" stroke-opacity=".9" stroke-width="4.8" stroke-linecap="butt" stroke-linejoin="miter" stroke-miterlimit="8"/><path data-wall="w27" d="M1002.56 417.08 L1033.56 363.4" fill="none" stroke="var(--wall)" stroke-opacity=".9" stroke-width="4.8" stroke-linecap="butt" stroke-linejoin="miter" stroke-miterlimit="8"/><path data-wall="w28" d="M953.56 502 L1092.16 582" fill="none" stroke="var(--wall)" stroke-opacity=".9" stroke-width="4.8" stroke-linecap="butt" stroke-linejoin="miter" stroke-miterlimit="8"/><path data-wall="w29" d="M985.08 335.4 L992 339.4" fill="none" stroke="var(--wall)" stroke-opacity=".9" stroke-width="4.8" stroke-linecap="butt" stroke-linejoin="miter" stroke-miterlimit="8"/><path data-wall="w29" d="M1026.64 359.4 L1033.56 363.4" fill="none" stroke="var(--wall)" stroke-opacity=".9" stroke-width="4.8" stroke-linecap="butt" stroke-linejoin="miter" stroke-miterlimit="8"/><path data-wall="w31" d="M1033.56 363.4 L1172.16 443.4" fill="none" stroke="var(--wall)" stroke-opacity=".9" stroke-width="4.8" stroke-linecap="butt" stroke-linejoin="miter" stroke-miterlimit="8"/><path data-wall="w1" data-axis="h" data-c="12" d="M537.08 557.12 L545.08 557.12" fill="none" stroke="var(--wall)" stroke-opacity="1" stroke-width="12" stroke-linecap="butt" stroke-linejoin="miter" stroke-miterlimit="8"/><path data-wall="w1" data-axis="h" data-c="12" d="M777.08 557.12 L785.08 557.12" fill="none" stroke="var(--wall)" stroke-opacity="1" stroke-width="12" stroke-linecap="butt" stroke-linejoin="miter" stroke-miterlimit="8"/><path data-wall="w1" data-axis="h" data-c="12" d="M841.08 557.12 L857.08 557.12" fill="none" stroke="var(--wall)" stroke-opacity="1" stroke-width="12" stroke-linecap="butt" stroke-linejoin="miter" stroke-miterlimit="8"/><path data-wall="w2" data-axis="h" data-c="22.799" d="M537.08 989.08 L577.08 989.08" fill="none" stroke="var(--wall)" stroke-opacity="1" stroke-width="12" stroke-linecap="butt" stroke-linejoin="miter" stroke-miterlimit="8"/><path data-wall="w2" data-axis="h" data-c="22.799" d="M617.08 989.08 L709.08 989.08" fill="none" stroke="var(--wall)" stroke-opacity="1" stroke-width="12" stroke-linecap="butt" stroke-linejoin="miter" stroke-miterlimit="8"/><path data-wall="w2" data-axis="h" data-c="22.799" d="M805.08 989.08 L857.08 989.08" fill="none" stroke="var(--wall)" stroke-opacity="1" stroke-width="12" stroke-linecap="butt" stroke-linejoin="miter" stroke-miterlimit="8"/><path data-wall="w3" d="M78 194 L104 239.04" fill="none" stroke="var(--wall)" stroke-opacity="1" stroke-width="12" stroke-linecap="butt" stroke-linejoin="miter" stroke-miterlimit="8"/><path data-wall="w3" d="M136 294.44 L162 339.48" fill="none" stroke="var(--wall)" stroke-opacity="1" stroke-width="12" stroke-linecap="butt" stroke-linejoin="miter" stroke-miterlimit="8"/><path data-wall="w4" d="M78 194 L150.8 152" fill="none" stroke="var(--wall)" stroke-opacity="1" stroke-width="12" stroke-linecap="butt" stroke-linejoin="miter" stroke-miterlimit="8"/><path data-wall="w4" d="M192.36 128 L265.08 86" fill="none" stroke="var(--wall)" stroke-opacity="1" stroke-width="12" stroke-linecap="butt" stroke-linejoin="miter" stroke-miterlimit="8"/><path data-wall="w5" d="M162 339.48 L184 377.64" fill="none" stroke="var(--wall)" stroke-opacity="1" stroke-width="12" stroke-linecap="butt" stroke-linejoin="miter" stroke-miterlimit="8"/><path data-wall="w5" d="M208 419.2 L230 457.28" fill="none" stroke="var(--wall)" stroke-opacity="1" stroke-width="12" stroke-linecap="butt" stroke-linejoin="miter" stroke-miterlimit="8"/><path data-wall="w7" d="M230 457.28 L254 498.84" fill="none" stroke="var(--wall)" stroke-opacity="1" stroke-width="12" stroke-linecap="butt" stroke-linejoin="miter" stroke-miterlimit="8"/><path data-wall="w7" d="M278 540.44 L302 582" fill="none" stroke="var(--wall)" stroke-opacity="1" stroke-width="12" stroke-linecap="butt" stroke-linejoin="miter" stroke-miterlimit="8"/><path data-wall="w9" d="M265.08 86 L349.08 231.48" fill="none" stroke="var(--wall)" stroke-opacity="1" stroke-width="12" stroke-linecap="butt" stroke-linejoin="miter" stroke-miterlimit="8"/><path data-wall="w12" d="M302 582 L320 613.16" fill="none" stroke="var(--wall)" stroke-opacity="1" stroke-width="12" stroke-linecap="butt" stroke-linejoin="miter" stroke-miterlimit="8"/><path data-wall="w12" d="M332 633.96 L350 665.12" fill="none" stroke="var(--wall)" stroke-opacity="1" stroke-width="12" stroke-linecap="butt" stroke-linejoin="miter" stroke-miterlimit="8"/><path data-wall="w14" d="M349.08 231.48 L407.08 331.96" fill="none" stroke="var(--wall)" stroke-opacity="1" stroke-width="12" stroke-linecap="butt" stroke-linejoin="miter" stroke-miterlimit="8"/><path data-wall="w14" d="M427.08 366.6 L457.08 418.56" fill="none" stroke="var(--wall)" stroke-opacity="1" stroke-width="12" stroke-linecap="butt" stroke-linejoin="miter" stroke-miterlimit="8"/><path data-wall="w16" d="M350 665.12 L537.08 989.08" fill="none" stroke="var(--wall)" stroke-opacity="1" stroke-width="12" stroke-linecap="butt" stroke-linejoin="miter" stroke-miterlimit="8"/><path data-wall="w19" d="M457.08 418.56 L537.08 557.12" fill="none" stroke="var(--wall)" stroke-opacity="1" stroke-width="12" stroke-linecap="butt" stroke-linejoin="miter" stroke-miterlimit="8"/><path data-wall="w22" d="M857.08 557.12 L937.08 418.56" fill="none" stroke="var(--wall)" stroke-opacity="1" stroke-width="12" stroke-linecap="butt" stroke-linejoin="miter" stroke-miterlimit="8"/><path data-wall="w23" d="M857.08 989.08 L1044.16 665.12" fill="none" stroke="var(--wall)" stroke-opacity="1" stroke-width="12" stroke-linecap="butt" stroke-linejoin="miter" stroke-miterlimit="8"/><path data-wall="w26" d="M937.08 418.56 L957.08 383.92" fill="none" stroke="var(--wall)" stroke-opacity="1" stroke-width="12" stroke-linecap="butt" stroke-linejoin="miter" stroke-miterlimit="8"/><path data-wall="w26" d="M977.08 349.28 L985.08 335.4" fill="none" stroke="var(--wall)" stroke-opacity="1" stroke-width="12" stroke-linecap="butt" stroke-linejoin="miter" stroke-miterlimit="8"/><path data-wall="w30" d="M985.08 335.4 L1097.08 141.44" fill="none" stroke="var(--wall)" stroke-opacity="1" stroke-width="12" stroke-linecap="butt" stroke-linejoin="miter" stroke-miterlimit="8"/><path data-wall="w32" d="M1044.16 665.12 L1062.16 633.96" fill="none" stroke="var(--wall)" stroke-opacity="1" stroke-width="12" stroke-linecap="butt" stroke-linejoin="miter" stroke-miterlimit="8"/><path data-wall="w32" d="M1074.16 613.16 L1092.16 582" fill="none" stroke="var(--wall)" stroke-opacity="1" stroke-width="12" stroke-linecap="butt" stroke-linejoin="miter" stroke-miterlimit="8"/><path data-wall="w33" d="M1092.16 582 L1118.16 536.92" fill="none" stroke="var(--wall)" stroke-opacity="1" stroke-width="12" stroke-linecap="butt" stroke-linejoin="miter" stroke-miterlimit="8"/><path data-wall="w33" d="M1146.16 488.44 L1172.16 443.4" fill="none" stroke="var(--wall)" stroke-opacity="1" stroke-width="12" stroke-linecap="butt" stroke-linejoin="miter" stroke-miterlimit="8"/><path data-wall="w34" d="M1097.08 141.44 L1166.36 181.44" fill="none" stroke="var(--wall)" stroke-opacity="1" stroke-width="12" stroke-linecap="butt" stroke-linejoin="miter" stroke-miterlimit="8"/><path data-wall="w34" d="M1214.88 209.44 L1284.16 249.44" fill="none" stroke="var(--wall)" stroke-opacity="1" stroke-width="12" stroke-linecap="butt" stroke-linejoin="miter" stroke-miterlimit="8"/><path data-wall="w35" d="M1172.16 443.4 L1212.16 374.16" fill="none" stroke="var(--wall)" stroke-opacity="1" stroke-width="12" stroke-linecap="butt" stroke-linejoin="miter" stroke-miterlimit="8"/><path data-wall="w35" d="M1244.16 318.72 L1284.16 249.44" fill="none" stroke="var(--wall)" stroke-opacity="1" stroke-width="12" stroke-linecap="butt" stroke-linejoin="miter" stroke-miterlimit="8"/><polygon class="wall-join" points="537.08,989.08 537.08,995.08 534.59,995.08 532.84,993.32" fill="var(--wall)" fill-opacity="1" stroke="none"/><polygon class="wall-join" points="857.08,989.08 857.08,995.08 859.57,995.08 861.32,993.32" fill="var(--wall)" fill-opacity="1" stroke="none"/><polygon class="wall-join" points="78,194 73.76,198.24 63.51,188 78,188" fill="var(--wall)" fill-opacity="1" stroke="none"/><polygon class="wall-join" points="265.08,86 260.84,81.76 265.08,77.51 269.32,81.76" fill="var(--wall)" fill-opacity="1" stroke="none"/><polygon class="wall-join" points="1097.08,141.44 1092.84,137.2 1094.59,135.44 1097.08,135.44" fill="var(--wall)" fill-opacity="1" stroke="none"/><polygon class="wall-join" points="1284.16,249.44 1288.4,245.2 1292.65,249.44 1288.4,253.68" fill="var(--wall)" fill-opacity="1" stroke="none"/><g class="door"><path d="M617.08 989.08 A40 40 0 0 0 577.08 949.08" fill="none" stroke="var(--muted)" stroke-width="1"/><line x1="577.08" y1="989.08" x2="577.08" y2="949.08" stroke="var(--wall)" stroke-width="2"/></g><text x="597.08" y="1012.08" text-anchor="middle" class="tag">ENTRANCE</text><g class="window"><path d="M709.08 986.08 L805.08 986.08" fill="none" stroke="var(--wall)" stroke-width="1"/><path d="M709.08 992.08 L805.08 992.08" fill="none" stroke="var(--wall)" stroke-width="1"/></g><g class="window"><path d="M545.08 554.12 L777.08 554.12" fill="none" stroke="var(--wall)" stroke-width="1"/><path d="M545.08 560.12 L777.08 560.12" fill="none" stroke="var(--wall)" stroke-width="1"/></g><g class="door"><path d="M841.08 557.12 A56 56 0 0 0 785.08 501.12" fill="none" stroke="var(--muted)" stroke-width="1"/><line x1="785.08" y1="557.12" x2="785.08" y2="501.12" stroke="var(--wall)" stroke-width="2"/><line x1="781.08" y1="529.12" x2="789.08" y2="529.12" stroke="var(--wall)" stroke-width="1"/></g><g class="door"><path d="M528.4 562.12 A36 36 0 0 0 479.24 548.96" fill="none" stroke="var(--muted)" stroke-width="1"/><line x1="497.24" y1="580.12" x2="479.24" y2="548.96" stroke="var(--wall)" stroke-width="2"/></g><g class="door"><path d="M896.88 580.12 A36 36 0 0 0 883.72 530.96" fill="none" stroke="var(--muted)" stroke-width="1"/><line x1="865.72" y1="562.12" x2="883.72" y2="530.96" stroke="var(--wall)" stroke-width="2"/></g><g class="door"><path d="M472.6 557.44 A32 32 0 0 1 428.88 545.72" fill="none" stroke="var(--muted)" stroke-width="1"/><line x1="456.6" y1="529.72" x2="428.88" y2="545.72" stroke="var(--wall)" stroke-width="2"/></g><g class="door"><path d="M413.6 455.2 A36 36 0 0 1 364.44 442.04" fill="none" stroke="var(--muted)" stroke-width="1"/><line x1="395.6" y1="424.04" x2="364.44" y2="442.04" stroke="var(--wall)" stroke-width="2"/></g><g class="door"><path d="M343.6 333.96 A36 36 0 0 1 294.44 320.8" fill="none" stroke="var(--muted)" stroke-width="1"/><line x1="325.6" y1="302.8" x2="294.44" y2="320.8" stroke="var(--wall)" stroke-width="2"/></g><g class="door"><path d="M340.4 236.48 A36 36 0 0 0 291.24 223.32" fill="none" stroke="var(--muted)" stroke-width="1"/><line x1="309.24" y1="254.48" x2="291.24" y2="223.32" stroke="var(--wall)" stroke-width="2"/></g><g class="door"><path d="M427.08 366.6 A40 40 0 0 0 441.72 311.96" fill="none" stroke="var(--muted)" stroke-width="1"/><line x1="407.08" y1="331.96" x2="441.72" y2="311.96" stroke="var(--wall)" stroke-width="2"/><line x1="422.4" y1="318.5" x2="426.4" y2="325.42" stroke="var(--wall)" stroke-width="1"/></g><g class="door"><path d="M937.56 529.68 A32 32 0 0 1 949.28 573.4" fill="none" stroke="var(--muted)" stroke-width="1"/><line x1="921.56" y1="557.4" x2="949.28" y2="573.4" stroke="var(--wall)" stroke-width="2"/></g><g class="door"><path d="M1002.56 417.12 A36 36 0 0 1 1015.72 466.28" fill="none" stroke="var(--muted)" stroke-width="1"/><line x1="984.56" y1="448.28" x2="1015.72" y2="466.28" stroke="var(--wall)" stroke-width="2"/></g><g class="door"><path d="M1026.64 359.4 A40 40 0 0 0 1012 304.76" fill="none" stroke="var(--muted)" stroke-width="1"/><line x1="992" y1="339.4" x2="1012" y2="304.76" stroke="var(--wall)" stroke-width="2"/></g><g class="door"><path d="M977.08 349.28 A40 40 0 0 0 922.44 363.92" fill="none" stroke="var(--muted)" stroke-width="1"/><line x1="957.08" y1="383.92" x2="922.44" y2="363.92" stroke="var(--wall)" stroke-width="2"/><line x1="937.76" y1="377.38" x2="941.76" y2="370.46" stroke="var(--wall)" stroke-width="1"/></g><g class="window"><path d="M322.6 611.68 L334.6 632.48" fill="none" stroke="var(--wall)" stroke-width="1"/><path d="M317.4 614.64 L329.4 635.44" fill="none" stroke="var(--wall)" stroke-width="1"/></g><g class="window"><path d="M256.6 497.36 L280.6 538.96" fill="none" stroke="var(--wall)" stroke-width="1"/><path d="M251.4 500.32 L275.4 541.92" fill="none" stroke="var(--wall)" stroke-width="1"/></g><g class="window"><path d="M186.6 376.12 L210.6 417.68" fill="none" stroke="var(--wall)" stroke-width="1"/><path d="M181.4 379.16 L205.4 420.72" fill="none" stroke="var(--wall)" stroke-width="1"/></g><g class="window"><path d="M106.6 237.52 L138.6 292.92" fill="none" stroke="var(--wall)" stroke-width="1"/><path d="M101.4 240.56 L133.4 295.96" fill="none" stroke="var(--wall)" stroke-width="1"/></g><g class="window"><path d="M149.28 149.4 L190.84 125.4" fill="none" stroke="var(--wall)" stroke-width="1"/><path d="M152.32 154.6 L193.88 130.6" fill="none" stroke="var(--wall)" stroke-width="1"/></g><g class="window"><path d="M1059.56 632.48 L1071.56 611.68" fill="none" stroke="var(--wall)" stroke-width="1"/><path d="M1064.76 635.44 L1076.76 614.64" fill="none" stroke="var(--wall)" stroke-width="1"/></g><g class="window"><path d="M1115.56 535.4 L1143.56 486.92" fill="none" stroke="var(--wall)" stroke-width="1"/><path d="M1120.76 538.44 L1148.76 489.96" fill="none" stroke="var(--wall)" stroke-width="1"/></g><g class="window"><path d="M1209.56 372.68 L1241.56 317.24" fill="none" stroke="var(--wall)" stroke-width="1"/><path d="M1214.76 375.64 L1246.76 320.2" fill="none" stroke="var(--wall)" stroke-width="1"/></g><g class="window"><path d="M1167.84 178.84 L1216.36 206.84" fill="none" stroke="var(--wall)" stroke-width="1"/><path d="M1164.88 184.04 L1213.4 212.04" fill="none" stroke="var(--wall)" stroke-width="1"/></g><text x="601.84" y="726.08" text-anchor="middle" class="rn">Sala e cozinha</text><text x="601.84" y="740.08" text-anchor="middle" class="ra">131.1 m²</text><text x="418.8" y="406.32" text-anchor="middle" class="rn">Corredor poente</text><text x="418.8" y="420.32" text-anchor="middle" class="ra">11.0 m²</text><circle cx="395.28" cy="583.52" r="8" fill="var(--bg)" stroke="var(--ink)" stroke-width="1"/><text x="395.28" y="587.02" text-anchor="middle" class="rk">1</text><text x="335.32" y="477.64" text-anchor="middle" class="rn">Quarto 1</text><text x="335.32" y="491.64" text-anchor="middle" class="ra">13.2 m²</text><text x="265.32" y="356.4" text-anchor="middle" class="rn">Quarto 2</text><text x="265.32" y="370.4" text-anchor="middle" class="ra">12.4 m²</text><text x="213.52" y="210.72" text-anchor="middle" class="rn">Suite</text><text x="213.52" y="224.72" text-anchor="middle" class="ra">20.3 m²</text><circle cx="945.32" cy="460.28" r="8" fill="var(--bg)" stroke="var(--ink)" stroke-width="1"/><text x="945.32" y="463.78" text-anchor="middle" class="rk">2</text><text x="998.88" y="581.56" text-anchor="middle" class="rn">Lavandaria</text><text x="998.88" y="595.56" text-anchor="middle" class="ra">8.6 m²</text><text x="1062.88" y="470.72" text-anchor="middle" class="rn">Escritório</text><text x="1062.88" y="484.72" text-anchor="middle" class="ra">14.7 m²</text><text x="1134.6" y="290.44" text-anchor="middle" class="rn">Sala de brincar</text><text x="1134.6" y="304.44" text-anchor="middle" class="ra">27.5 m²</text><g class="dims" stroke="var(--muted)" stroke-width="1"><line x1="78" y1="60" x2="1284.16" y2="60"/><line x1="78" y1="55" x2="78" y2="65"/><line x1="1284.16" y1="55" x2="1284.16" y2="65"/><line x1="44" y1="86" x2="44" y2="989.08"/><line x1="39" y1="86" x2="49" y2="86"/><line x1="39" y1="989.08" x2="49" y2="989.08"/></g><text x="681.08" y="53" text-anchor="middle" class="dim">30.15 m</text><text x="36" y="537.54" text-anchor="middle" class="dim" transform="rotate(-90 36 537.54)">22.58 m</text><g transform="rotate(0 1342.16 116)" stroke="var(--ink)" fill="var(--ink)"><line x1="1342.16" y1="136" x2="1342.16" y2="102" stroke-width="1.5"/><path d="M1342.16 96 L1337.16 107 L1347.16 107 z" stroke="none"/></g><text x="1342.16" y="150" text-anchor="middle" class="dim">N</text><g stroke="var(--ink)"><line x1="78" y1="1029.08" x2="278" y2="1029.08" stroke-width="2"/><line x1="78" y1="1025.08" x2="78" y2="1033.08" stroke-width="1"/><line x1="118" y1="1025.08" x2="118" y2="1033.08" stroke-width="1"/><line x1="158" y1="1025.08" x2="158" y2="1033.08" stroke-width="1"/><line x1="198" y1="1025.08" x2="198" y2="1033.08" stroke-width="1"/><line x1="238" y1="1025.08" x2="238" y2="1033.08" stroke-width="1"/><line x1="278" y1="1025.08" x2="278" y2="1033.08" stroke-width="1"/></g><text x="78" y="1046.08" text-anchor="start" class="dim">0</text><text x="278" y="1046.08" text-anchor="middle" class="dim">5 m</text><text x="338" y="1029.08" text-anchor="end" class="rk">1</text><text x="346" y="1029.08" text-anchor="start" class="ra">Casa de banho  8.6 m²</text><text x="338" y="1044.08" text-anchor="end" class="rk">2</text><text x="346" y="1044.08" text-anchor="start" class="ra">Corredor nascente  7.5 m²</text><text x="78" y="24" class="title">Casa em V</text></svg>