<svg xmlns="http://www.w3.org/2000/svg" viewBox="0 0 634 652" width="634" height="652" class="floorplan theme-auto" role="img" aria-label="Floor plan Casa com Pátio, 11.20 by 12.40 metres, 5 rooms"><style>svg.floorplan{--bg:#ffffff;--wall:#1b1b1b;--ink:#333333;--muted:#8a8a8a;--accent:#2f9e5b;--water:#2f7fd0;--fill-alpha:.14;font-family:ui-sans-serif, system-ui, -apple-system, 'Segoe UI', Helvetica, Arial, sans-serif}
svg.floorplan.theme-dark{--bg:#121212;--wall:#ededed;--ink:#d6d6d6;--muted:#8f8f8f;--water:#4f9ae8;--fill-alpha:.28}
@media (prefers-color-scheme:dark){svg.floorplan.theme-auto{--bg:#121212;--wall:#ededed;--ink:#d6d6d6;--muted:#8f8f8f;--water:#4f9ae8;--fill-alpha:.28}}
.rn{font-size:12px;font-weight:600;fill:var(--ink)}
.ra{font-size:10.5px;fill:var(--muted)}
.rk{font-size:10px;font-weight:700;fill:var(--ink)}
.dim{font-size:10.5px;fill:var(--muted);font-variant-numeric:tabular-nums}
.tag{font-size:8.5px;font-weight:700;letter-spacing:.08em;fill:var(--accent)}
.fx{font-size:9.5px;font-weight:600;fill:var(--muted)}
.mk{font-size:10px;font-weight:700;fill:#fff}
.title{font-size:15px;font-weight:700;fill:var(--ink)}</style><rect width="100%" height="100%" fill="var(--bg)"/><polygon points="222,222 382,222 382,382 222,382" fill="var(--accent)" fill-opacity=".08" stroke="var(--accent)" stroke-width="1" stroke-dasharray="5 4"/><text x="302" y="300" text-anchor="middle" class="rn">Pátio</text><text x="302" y="314" text-anchor="middle" class="ra">16.0 m²</text><g class="room" data-id="sala"><title>Sala — 36.4 m²</title><polygon points="78,86 382,86 382,222 222,222 222,382 78,382" fill="#2f6fdb" fill-opacity="var(--fill-alpha)"/></g><g class="room" data-id="cozinha"><title>Cozinha — 24.0 m²</title><polygon points="382,86 526,86 526,382 382,382" fill="#2f6fdb" fill-opacity="var(--fill-alpha)"/></g><g class="room" data-id="hall"><title>Hall — 15.8 m²</title><polygon points="78,382 526,382 526,446 78,446" fill="#2f6fdb" fill-opacity="var(--fill-alpha)"/></g><g class="room" data-id="quarto"><title>Quarto — 23.6 m²</title><polygon points="78,446 382,446 382,582 78,582" fill="#e07b1a" fill-opacity="var(--fill-alpha)"/></g><g class="room" data-id="wc"><title>WC — 10.8 m²</title><polygon points="382,446 526,446 526,582 382,582" fill="#e07b1a" fill-opacity="var(--fill-alpha)"/></g><line x1="75.6" y1="382" x2="130" y2="382" stroke="var(--wall)" stroke-opacity=".9" stroke-width="4.8" stroke-linecap="butt"/><line x1="170" y1="382" x2="224.4" y2="382" stroke="var(--wall)" stroke-opacity=".9" stroke-width="4.8" stroke-linecap="butt"/><line x1="379.6" y1="382" x2="436" y2="382" stroke="var(--wall)" stroke-opacity=".9" stroke-width="4.8" stroke-linecap="butt"/><line x1="472" y1="382" x2="528.4" y2="382" stroke="var(--wall)" stroke-opacity=".9" stroke-width="4.8" stroke-linecap="butt"/><line x1="75.6" y1="446" x2="212" y2="446" stroke="var(--wall)" stroke-opacity=".9" stroke-width="4.8" stroke-linecap="butt"/><line x1="248" y1="446" x2="384.4" y2="446" stroke="var(--wall)" stroke-opacity=".9" stroke-width="4.8" stroke-linecap="butt"/><line x1="379.6" y1="446" x2="438" y2="446" stroke="var(--wall)" stroke-opacity=".9" stroke-width="4.8" stroke-linecap="butt"/><line x1="470" y1="446" x2="528.4" y2="446" stroke="var(--wall)" stroke-opacity=".9" stroke-width="4.8" stroke-linecap="butt"/><line x1="382" y1="83.6" x2="382" y2="224.4" stroke="var(--wall)" stroke-opacity=".9" stroke-width="4.8" stroke-linecap="butt"/><line x1="382" y1="443.6" x2="382" y2="584.4" stroke="var(--wall)" stroke-opacity=".9" stroke-width="4.8" stroke-linecap="butt"/><line x1="72" y1="86" x2="388" y2="86" stroke="var(--wall)" stroke-opacity="1" stroke-width="12" stroke-linecap="butt"/><line x1="376" y1="86" x2="532" y2="86" stroke="var(--wall)" stroke-opacity="1" stroke-width="12" stroke-linecap="butt"/><line x1="216" y1="222" x2="388" y2="222" stroke="var(--wall)" stroke-opacity="1" stroke-width="12" stroke-linecap="butt"/><line x1="216" y1="382" x2="282" y2="382" stroke="var(--wall)" stroke-opacity="1" stroke-width="12" stroke-linecap="butt"/><line x1="322" y1="382" x2="388" y2="382" stroke="var(--wall)" stroke-opacity="1" stroke-width="12" stroke-linecap="butt"/><line x1="72" y1="582" x2="194" y2="582" stroke="var(--wall)" stroke-opacity="1" stroke-width="12" stroke-linecap="butt"/><line x1="266" y1="582" x2="388" y2="582" stroke="var(--wall)" stroke-opacity="1" stroke-width="12" stroke-linecap="butt"/><line x1="376" y1="582" x2="442" y2="582" stroke="var(--wall)" stroke-opacity="1" stroke-width="12" stroke-linecap="butt"/><line x1="466" y1="582" x2="532" y2="582" stroke="var(--wall)" stroke-opacity="1" stroke-width="12" stroke-linecap="butt"/><line x1="78" y1="80" x2="78" y2="388" stroke="var(--wall)" stroke-opacity="1" stroke-width="12" stroke-linecap="butt"/><line x1="78" y1="376" x2="78" y2="394" stroke="var(--wall)" stroke-opacity="1" stroke-width="12" stroke-linecap="butt"/><line x1="78" y1="434" x2="78" y2="452" stroke="var(--wall)" stroke-opacity="1" stroke-width="12" stroke-linecap="butt"/><line x1="78" y1="440" x2="78" y2="588" stroke="var(--wall)" stroke-opacity="1" stroke-width="12" stroke-linecap="butt"/><line x1="222" y1="216" x2="222" y2="262" stroke="var(--wall)" stroke-opacity="1" stroke-width="12" stroke-linecap="butt"/><line x1="222" y1="342" x2="222" y2="388" stroke="var(--wall)" stroke-opacity="1" stroke-width="12" stroke-linecap="butt"/><line x1="382" y1="216" x2="382" y2="388" stroke="var(--wall)" stroke-opacity="1" stroke-width="12" stroke-linecap="butt"/><line x1="526" y1="80" x2="526" y2="202" stroke="var(--wall)" stroke-opacity="1" stroke-width="12" stroke-linecap="butt"/><line x1="526" y1="266" x2="526" y2="388" stroke="var(--wall)" stroke-opacity="1" stroke-width="12" stroke-linecap="butt"/><line x1="526" y1="376" x2="526" y2="452" stroke="var(--wall)" stroke-opacity="1" stroke-width="12" stroke-linecap="butt"/><line x1="526" y1="440" x2="526" y2="588" stroke="var(--wall)" stroke-opacity="1" stroke-width="12" stroke-linecap="butt"/><g class="door"><path d="M78 434 A40 40 0 0 0 118 394" fill="none" stroke="var(--muted)" stroke-width="1"/><line x1="78" y1="394" x2="118" y2="394" stroke="var(--wall)" stroke-width="2"/></g><text x="58" y="417" text-anchor="middle" class="tag" transform="rotate(-90 58 414)">ENTRANCE</text><g class="door"><path d="M322 382 A40 40 0 0 1 282 422" fill="none" stroke="var(--muted)" stroke-width="1"/><line x1="282" y1="382" x2="282" y2="422" stroke="var(--wall)" stroke-width="2"/></g><g class="door"><path d="M170 382 A40 40 0 0 0 130 342" fill="none" stroke="var(--muted)" stroke-width="1"/><line x1="130" y1="382" x2="130" y2="342" stroke="var(--wall)" stroke-width="2"/></g><g class="door"><path d="M472 382 A36 36 0 0 0 436 346" fill="none" stroke="var(--muted)" stroke-width="1"/><line x1="436" y1="382" x2="436" y2="346" stroke="var(--wall)" stroke-width="2"/></g><g class="door"><path d="M248 446 A36 36 0 0 1 212 482" fill="none" stroke="var(--muted)" stroke-width="1"/><line x1="212" y1="446" x2="212" y2="482" stroke="var(--wall)" stroke-width="2"/></g><g class="door"><path d="M470 446 A32 32 0 0 1 438 478" fill="none" stroke="var(--muted)" stroke-width="1"/><line x1="438" y1="446" x2="438" y2="478" stroke="var(--wall)" stroke-width="2"/></g><g class="window"><line x1="219" y1="262" x2="219" y2="342" stroke="var(--wall)" stroke-width="1"/><line x1="225" y1="262" x2="225" y2="342" stroke="var(--wall)" stroke-width="1"/></g><g class="window"><line x1="523" y1="202" x2="523" y2="266" stroke="var(--wall)" stroke-width="1"/><line x1="529" y1="202" x2="529" y2="266" stroke="var(--wall)" stroke-width="1"/></g><g class="window"><line x1="194" y1="579" x2="266" y2="579" stroke="var(--wall)" stroke-width="1"/><line x1="194" y1="585" x2="266" y2="585" stroke="var(--wall)" stroke-width="1"/></g><g class="window"><line x1="442" y1="579" x2="466" y2="579" stroke="var(--wall)" stroke-width="1"/><line x1="442" y1="585" x2="466" y2="585" stroke="var(--wall)" stroke-width="1"/></g><text x="150" y="232" text-anchor="middle" class="rn">Sala</text><text x="150" y="246" text-anchor="middle" class="ra">36.4 m²</text><text x="454" y="232" text-anchor="middle" class="rn">Cozinha</text><text x="454" y="246" text-anchor="middle" class="ra">24.0 m²</text><text x="302" y="412" text-anchor="middle" class="rn">Hall</text><text x="302" y="426" text-anchor="middle" class="ra">15.8 m²</text><text x="230" y="512" text-anchor="middle" class="rn">Quarto</text><text x="230" y="526" text-anchor="middle" class="ra">23.6 m²</text><text x="454" y="512" text-anchor="middle" class="rn">WC</text><text x="454" y="526" text-anchor="middle" class="ra">10.8 m²</text><g class="dims" stroke="var(--muted)" stroke-width="1"><line x1="78" y1="60" x2="526" y2="60"/><line x1="78" y1="55" x2="78" y2="65"/><line x1="526" y1="55" x2="526" y2="65"/><line x1="44" y1="86" x2="44" y2="582"/><line x1="39" y1="86" x2="49" y2="86"/><line x1="39" y1="582" x2="49" y2="582"/></g><text x="302" y="53" text-anchor="middle" class="dim">11.20 m</text><text x="36" y="334" text-anchor="middle" class="dim" transform="rotate(-90 36 334)">12.40 m</text><g transform="rotate(0 584 116)" stroke="var(--ink)" fill="var(--ink)"><line x1="584" y1="136" x2="584" y2="102" stroke-width="1.5"/><path d="M584 96 L579 107 L589 107 z" stroke="none"/></g><text x="584" y="150" text-anchor="middle" class="dim">N</text><g stroke="var(--ink)"><line x1="78" y1="622" x2="278" y2="622" stroke-width="2"/><line x1="78" y1="618" x2="78" y2="626" stroke-width="1"/><line x1="118" y1="618" x2="118" y2="626" stroke-width="1"/><line x1="158" y1="618" x2="158" y2="626" stroke-width="1"/><line x1="198" y1="618" x2="198" y2="626" stroke-width="1"/><line x1="238" y1="618" x2="238" y2="626" stroke-width="1"/><line x1="278" y1="618" x2="278" y2="626" stroke-width="1"/></g><text x="78" y="639" text-anchor="start" class="dim">0</text><text x="278" y="639" text-anchor="middle" class="dim">5 m</text><text x="78" y="24" class="title">Casa com Pátio</text></svg>