<svg xmlns="http://www.w3.org/2000/svg" viewBox="0 0 658 596" width="658" height="596" class="floorplan theme-auto" role="img" aria-label="Floor plan Moradia de 2 pisos — Piso 1, 11.80 by 10.00 metres, 6 rooms"><style>svg.floorplan{--bg:#ffffff;--wall:#1b1b1b;--ink:#333333;--muted:#8a8a8a;--accent:#2f9e5b;--water:#2f7fd0;--fill-alpha:.14;font-family:ui-sans-serif, system-ui, -apple-system, 'Segoe UI', Helvetica, Arial, sans-serif}
svg.floorplan.theme-dark{--bg:#121212;--wall:#ededed;--ink:#d6d6d6;--muted:#8f8f8f;--water:#4f9ae8;--fill-alpha:.28}
@media (prefers-color-scheme:dark){svg.floorplan.theme-auto{--bg:#121212;--wall:#ededed;--ink:#d6d6d6;--muted:#8f8f8f;--water:#4f9ae8;--fill-alpha:.28}}
.rn{font-size:12px;font-weight:600;fill:var(--ink)}
.ra{font-size:10.5px;fill:var(--muted)}
.rk{font-size:10px;font-weight:700;fill:var(--ink)}
.dim{font-size:10.5px;fill:var(--muted);font-variant-numeric:tabular-nums}
.tag{font-size:8.5px;font-weight:700;letter-spacing:.08em;fill:var(--accent)}
.fx{font-size:9.5px;font-weight:600;fill:var(--muted)}
.mk{font-size:10px;font-weight:700;fill:#fff}
.title{font-size:15px;font-weight:700;fill:var(--ink)}</style><rect width="100%" height="100%" fill="var(--bg)"/><g class="ghost" aria-hidden="true" fill="none" stroke="var(--muted)" stroke-opacity=".28"><polygon points="78,86 550,86 550,294 374,294 374,374 274,374 274,486 78,486" stroke-width="1.5" stroke-dasharray="6 4"/><path d="M78 294 L274 294" stroke-width="1" stroke-dasharray="4 4"/><path d="M274 294 L374 294" stroke-width="1" stroke-dasharray="4 4"/><path d="M274 294 L274 86" stroke-width="1" stroke-dasharray="4 4"/><path d="M274 374 L274 294" stroke-width="1" stroke-dasharray="4 4"/><path d="M374 294 L374 86" stroke-width="1" stroke-dasharray="4 4"/></g><g class="void" data-void="vazio_sala"><title>Pé-direito duplo da Sala — no floor</title><polygon points="78,214 274,214 274,294 78,294" fill="var(--ink)" fill-opacity=".05" stroke="var(--muted)" stroke-width="1" stroke-dasharray="2 3"/></g><text x="176" y="258" text-anchor="middle" class="ra">Pé-direito duplo da Sala</text><g class="void" data-void="vazio_escada"><title>Caixa de escada — no floor</title><polygon points="274,142 322,142 322,294 274,294" fill="var(--ink)" fill-opacity=".05" stroke="var(--muted)" stroke-width="1" stroke-dasharray="2 3"/></g><text x="298" y="222" text-anchor="middle" class="ra">Caixa de escada</text><g class="room" data-id="hall_sup"><title>Hall superior — 11.6 m²</title><polygon points="274,86 374,86 374,374 274,374 274,294 322,294 322,142 274,142" fill="#2f6fdb" fill-opacity="var(--fill-alpha)"/></g><g class="room" data-id="quarto1"><title>Quarto 1 — 14.0 m²</title><polygon points="78,86 274,86 274,214 78,214" fill="#2f6fdb" fill-opacity="var(--fill-alpha)"/></g><g class="room" data-id="quarto2"><title>Quarto 2 — 12.5 m²</title><polygon points="374,86 550,86 550,214 374,214" fill="#2f6fdb" fill-opacity="var(--fill-alpha)"/></g><g class="room" data-id="quarto3"><title>Quarto 3 — 13.4 m²</title><polygon points="78,294 274,294 274,414 78,414" fill="#2f6fdb" fill-opacity="var(--fill-alpha)"/></g><g class="room" data-id="wc_suite"><title>WC da suite — 7.5 m²</title><polygon points="374,214 550,214 550,294 374,294" fill="#2f6fdb" fill-opacity="var(--fill-alpha)"/></g><g class="room" data-id="wc_sup"><title>WC superior — 7.3 m²</title><polygon points="78,414 274,414 274,486 78,486" fill="#2f6fdb" fill-opacity="var(--fill-alpha)"/></g><g class="fixture" data-fixture="0" data-type="bath"><title>Bath — 1.28 m²</title><polygon data-fixture="0" data-body="1" points="474,226 542,226 542,256 474,256" fill="var(--muted)" fill-opacity=".16" stroke="var(--muted)" stroke-width="1" stroke-dasharray="3 2" pointer-events="fill"/><text x="508" y="239" text-anchor="middle" class="fx">Bath</text><line data-fixture="0" data-side="west" data-axis="v" x1="474" y1="226" x2="474" y2="256" stroke="transparent" stroke-width="8" pointer-events="stroke"/><line data-fixture="0" data-side="east" data-axis="v" x1="542" y1="226" x2="542" y2="256" stroke="transparent" stroke-width="8" pointer-events="stroke"/><line data-fixture="0" data-side="north" data-axis="h" x1="474" y1="226" x2="542" y2="226" stroke="transparent" stroke-width="8" pointer-events="stroke"/><line data-fixture="0" data-side="south" data-axis="h" x1="474" y1="256" x2="542" y2="256" stroke="transparent" stroke-width="8" pointer-events="stroke"/></g><g class="fixture" data-fixture="1" data-type="shower"><title>Shower — 0.81 m²</title><polygon data-fixture="1" data-body="1" points="90,426 126,426 126,462 90,462" fill="var(--muted)" fill-opacity=".16" stroke="var(--muted)" stroke-width="1" stroke-dasharray="3 2" pointer-events="fill"/><line data-fixture="1" data-side="west" data-axis="v" x1="90" y1="426" x2="90" y2="462" stroke="transparent" stroke-width="8" pointer-events="stroke"/><line data-fixture="1" data-side="east" data-axis="v" x1="126" y1="426" x2="126" y2="462" stroke="transparent" stroke-width="8" pointer-events="stroke"/><line data-fixture="1" data-side="north" data-axis="h" x1="90" y1="426" x2="126" y2="426" stroke="transparent" stroke-width="8" pointer-events="stroke"/><line data-fixture="1" data-side="south" data-axis="h" x1="90" y1="462" x2="126" y2="462" stroke="transparent" stroke-width="8" pointer-events="stroke"/></g><g class="fixture" data-vertical="escada" data-type="stairs"><title>Escada — 1.21 m²</title><polygon data-vertical="escada" data-body="1" points="276,94 320,94 320,138 276,138" fill="var(--muted)" fill-opacity=".16" stroke="var(--muted)" stroke-width="1" stroke-dasharray="3 2" pointer-events="fill"/></g><path data-wall="w4" data-axis="h" data-c="1.4" d="M274 142 L322 142" fill="none" stroke="var(--wall)" stroke-opacity=".9" stroke-width="4.8" stroke-linecap="butt" stroke-linejoin="miter" stroke-miterlimit="8"/><path data-wall="w5" data-axis="h" data-c="3.2" d="M78 214 L274 214" fill="none" stroke="var(--wall)" stroke-opacity=".9" stroke-width="4.8" stroke-linecap="butt" stroke-linejoin="miter" stroke-miterlimit="8"/><path data-wall="w6" data-axis="h" data-c="3.2" d="M374 214 L550 214" fill="none" stroke="var(--wall)" stroke-opacity=".9" stroke-width="4.8" stroke-linecap="butt" stroke-linejoin="miter" stroke-miterlimit="8"/><path data-wall="w7" data-axis="h" data-c="5.2" d="M78 294 L274 294" fill="none" stroke="var(--wall)" stroke-opacity=".9" stroke-width="4.8" stroke-linecap="butt" stroke-linejoin="miter" stroke-miterlimit="8"/><path data-wall="w8" data-axis="h" data-c="5.2" d="M274 294 L322 294" fill="none" stroke="var(--wall)" stroke-opacity=".9" stroke-width="4.8" stroke-linecap="butt" stroke-linejoin="miter" stroke-miterlimit="8"/><path data-wall="w11" data-axis="h" data-c="8.2" d="M78 414 L162 414" fill="none" stroke="var(--wall)" stroke-opacity=".9" stroke-width="4.8" stroke-linecap="butt" stroke-linejoin="miter" stroke-miterlimit="8"/><path data-wall="w11" data-axis="h" data-c="8.2" d="M190 414 L274 414" fill="none" stroke="var(--wall)" stroke-opacity=".9" stroke-width="4.8" stroke-linecap="butt" stroke-linejoin="miter" stroke-miterlimit="8"/><path data-wall="w17" data-axis="v" data-c="4.9" d="M274 98 L274 86" fill="none" stroke="var(--wall)" stroke-opacity=".9" stroke-width="4.8" stroke-linecap="butt" stroke-linejoin="miter" stroke-miterlimit="8"/><path data-wall="w17" data-axis="v" data-c="4.9" d="M274 142 L274 130" fill="none" stroke="var(--wall)" stroke-opacity=".9" stroke-width="4.8" stroke-linecap="butt" stroke-linejoin="miter" stroke-miterlimit="8"/><path data-wall="w18" data-axis="v" data-c="4.9" d="M274 214 L274 142" fill="none" stroke="var(--wall)" stroke-opacity=".9" stroke-width="4.8" stroke-linecap="butt" stroke-linejoin="miter" stroke-miterlimit="8"/><path data-wall="w19" data-axis="v" data-c="4.9" d="M274 294 L274 214" fill="none" stroke="var(--wall)" stroke-opacity=".9" stroke-width="4.8" stroke-linecap="butt" stroke-linejoin="miter" stroke-miterlimit="8"/><path data-wall="w20" data-axis="v" data-c="4.9" d="M274 318 L274 294" fill="none" stroke="var(--wall)" stroke-opacity=".9" stroke-width="4.8" stroke-linecap="butt" stroke-linejoin="miter" stroke-miterlimit="8"/><path data-wall="w20" data-axis="v" data-c="4.9" d="M274 374 L274 350" fill="none" stroke="var(--wall)" stroke-opacity=".9" stroke-width="4.8" stroke-linecap="butt" stroke-linejoin="miter" stroke-miterlimit="8"/><path data-wall="w23" data-axis="v" data-c="6.1" d="M322 294 L322 142" fill="none" stroke="var(--wall)" stroke-opacity=".9" stroke-width="4.8" stroke-linecap="butt" stroke-linejoin="miter" stroke-miterlimit="8"/><path data-wall="w24" data-axis="v" data-c="7.4" d="M374 134 L374 86" fill="none" stroke="var(--wall)" stroke-opacity=".9" stroke-width="4.8" stroke-linecap="butt" stroke-linejoin="miter" stroke-miterlimit="8"/><path data-wall="w24" data-axis="v" data-c="7.4" d="M374 214 L374 166" fill="none" stroke="var(--wall)" stroke-opacity=".9" stroke-width="4.8" stroke-linecap="butt" stroke-linejoin="miter" stroke-miterlimit="8"/><path data-wall="w25" data-axis="v" data-c="7.4" d="M374 240 L374 214" fill="none" stroke="var(--wall)" stroke-opacity=".9" stroke-width="4.8" stroke-linecap="butt" stroke-linejoin="miter" stroke-miterlimit="8"/><path data-wall="w25" data-axis="v" data-c="7.4" d="M374 294 L374 268" fill="none" stroke="var(--wall)" stroke-opacity=".9" stroke-width="4.8" stroke-linecap="butt" stroke-linejoin="miter" stroke-miterlimit="8"/><path data-wall="w1" data-axis="h" data-c="0" d="M78 86 L136 86" fill="none" stroke="var(--wall)" stroke-opacity="1" stroke-width="12" stroke-linecap="butt" stroke-linejoin="miter" stroke-miterlimit="8"/><path data-wall="w1" data-axis="h" data-c="0" d="M216 86 L274 86" fill="none" stroke="var(--wall)" stroke-opacity="1" stroke-width="12" stroke-linecap="butt" stroke-linejoin="miter" stroke-miterlimit="8"/><path data-wall="w2" data-axis="h" data-c="0" d="M274 86 L374 86" fill="none" stroke="var(--wall)" stroke-opacity="1" stroke-width="12" stroke-linecap="butt" stroke-linejoin="miter" stroke-miterlimit="8"/><path data-wall="w3" data-axis="h" data-c="0" d="M374 86 L426 86" fill="none" stroke="var(--wall)" stroke-opacity="1" stroke-width="12" stroke-linecap="butt" stroke-linejoin="miter" stroke-miterlimit="8"/><path data-wall="w3" data-axis="h" data-c="0" d="M498 86 L550 86" fill="none" stroke="var(--wall)" stroke-opacity="1" stroke-width="12" stroke-linecap="butt" stroke-linejoin="miter" stroke-miterlimit="8"/><path data-wall="w9" data-axis="h" data-c="5.2" d="M374 294 L550 294" fill="none" stroke="var(--wall)" stroke-opacity="1" stroke-width="12" stroke-linecap="butt" stroke-linejoin="miter" stroke-miterlimit="8"/><path data-wall="w10" data-axis="h" data-c="7.2" d="M274 374 L374 374" fill="none" stroke="var(--wall)" stroke-opacity="1" stroke-width="12" stroke-linecap="butt" stroke-linejoin="miter" stroke-miterlimit="8"/><path data-wall="w12" data-axis="h" data-c="10" d="M78 486 L160 486" fill="none" stroke="var(--wall)" stroke-opacity="1" stroke-width="12" stroke-linecap="butt" stroke-linejoin="miter" stroke-miterlimit="8"/><path data-wall="w12" data-axis="h" data-c="10" d="M192 486 L274 486" fill="none" stroke="var(--wall)" stroke-opacity="1" stroke-width="12" stroke-linecap="butt" stroke-linejoin="miter" stroke-miterlimit="8"/><path data-wall="w13" data-axis="v" data-c="0" d="M78 214 L78 86" fill="none" stroke="var(--wall)" stroke-opacity="1" stroke-width="12" stroke-linecap="butt" stroke-linejoin="miter" stroke-miterlimit="8"/><path data-wall="w14" data-axis="v" data-c="0" d="M78 294 L78 214" fill="none" stroke="var(--wall)" stroke-opacity="1" stroke-width="12" stroke-linecap="butt" stroke-linejoin="miter" stroke-miterlimit="8"/><path data-wall="w15" data-axis="v" data-c="0" d="M78 322 L78 294" fill="none" stroke="var(--wall)" stroke-opacity="1" stroke-width="12" stroke-linecap="butt" stroke-linejoin="miter" stroke-miterlimit="8"/><path data-wall="w15" data-axis="v" data-c="0" d="M78 414 L78 386" fill="none" stroke="var(--wall)" stroke-opacity="1" stroke-width="12" stroke-linecap="butt" stroke-linejoin="miter" stroke-miterlimit="8"/><path data-wall="w16" data-axis="v" data-c="0" d="M78 486 L78 414" fill="none" stroke="var(--wall)" stroke-opacity="1" stroke-width="12" stroke-linecap="butt" stroke-linejoin="miter" stroke-miterlimit="8"/><path data-wall="w21" data-axis="v" data-c="4.9" d="M274 414 L274 374" fill="none" stroke="var(--wall)" stroke-opacity="1" stroke-width="12" stroke-linecap="butt" stroke-linejoin="miter" stroke-miterlimit="8"/><path data-wall="w22" data-axis="v" data-c="4.9" d="M274 486 L274 414" fill="none" stroke="var(--wall)" stroke-opacity="1" stroke-width="12" stroke-linecap="butt" stroke-linejoin="miter" stroke-miterlimit="8"/><path data-wall="w26" data-axis="v" data-c="7.4" d="M374 374 L374 294" fill="none" stroke="var(--wall)" stroke-opacity="1" stroke-width="12" stroke-linecap="butt" stroke-linejoin="miter" stroke-miterlimit="8"/><path data-wall="w27" data-axis="v" data-c="11.8" d="M550 214 L550 86" fill="none" stroke="var(--wall)" stroke-opacity="1" stroke-width="12" stroke-linecap="butt" stroke-linejoin="miter" stroke-miterlimit="8"/><path data-wall="w28" data-axis="v" data-c="11.8" d="M550 236 L550 214" fill="none" stroke="var(--wall)" stroke-opacity="1" stroke-width="12" stroke-linecap="butt" stroke-linejoin="miter" stroke-miterlimit="8"/><path data-wall="w28" data-axis="v" data-c="11.8" d="M550 294 L550 272" fill="none" stroke="var(--wall)" stroke-opacity="1" stroke-width="12" stroke-linecap="butt" stroke-linejoin="miter" stroke-miterlimit="8"/><polygon class="wall-join" points="322,142 322,139.6 324.4,139.6 324.4,142" fill="var(--wall)" fill-opacity=".9" stroke="none"/><polygon class="wall-join" points="322,294 322,296.4 324.4,296.4 324.4,294" fill="var(--wall)" fill-opacity=".9" stroke="none"/><polygon class="wall-join" points="78,86 78,80 72,80 72,86" fill="var(--wall)" fill-opacity="1" stroke="none"/><polygon class="wall-join" points="550,86 550,80 556,80 556,86" fill="var(--wall)" fill-opacity="1" stroke="none"/><polygon class="wall-join" points="550,294 550,300 556,300 556,294" fill="var(--wall)" fill-opacity="1" stroke="none"/><polygon class="wall-join" points="374,374 374,380 380,380 380,374" fill="var(--wall)" fill-opacity="1" stroke="none"/><polygon class="wall-join" points="78,486 78,492 72,492 72,486" fill="var(--wall)" fill-opacity="1" stroke="none"/><polygon class="wall-join" points="274,486 274,492 280,492 280,486" fill="var(--wall)" fill-opacity="1" stroke="none"/><g class="door"><path d="M274 130 A32 32 0 0 1 242 98" fill="none" stroke="var(--muted)" stroke-width="1"/><line x1="274" y1="98" x2="242" y2="98" stroke="var(--wall)" stroke-width="2"/></g><g class="door"><path d="M374 166 A32 32 0 0 0 406 134" fill="none" stroke="var(--muted)" stroke-width="1"/><line x1="374" y1="134" x2="406" y2="134" stroke="var(--wall)" stroke-width="2"/></g><g class="door"><path d="M274 350 A32 32 0 0 1 242 318" fill="none" stroke="var(--muted)" stroke-width="1"/><line x1="274" y1="318" x2="242" y2="318" stroke="var(--wall)" stroke-width="2"/></g><g class="door"><path d="M374 268 A28 28 0 0 0 402 240" fill="none" stroke="var(--muted)" stroke-width="1"/><line x1="374" y1="240" x2="402" y2="240" stroke="var(--wall)" stroke-width="2"/></g><g class="door"><path d="M190 414 A28 28 0 0 1 162 442" fill="none" stroke="var(--muted)" stroke-width="1"/><line x1="162" y1="414" x2="162" y2="442" stroke="var(--wall)" stroke-width="2"/></g><g class="window"><path d="M136 83 L216 83" fill="none" stroke="var(--wall)" stroke-width="1"/><path d="M136 89 L216 89" fill="none" stroke="var(--wall)" stroke-width="1"/></g><g class="window"><path d="M426 83 L498 83" fill="none" stroke="var(--wall)" stroke-width="1"/><path d="M426 89 L498 89" fill="none" stroke="var(--wall)" stroke-width="1"/></g><g class="window"><path d="M75 386 L75 322" fill="none" stroke="var(--wall)" stroke-width="1"/><path d="M81 386 L81 322" fill="none" stroke="var(--wall)" stroke-width="1"/></g><g class="window"><path d="M547 272 L547 236" fill="none" stroke="var(--wall)" stroke-width="1"/><path d="M553 272 L553 236" fill="none" stroke="var(--wall)" stroke-width="1"/></g><g class="window"><path d="M160 483 L192 483" fill="none" stroke="var(--wall)" stroke-width="1"/><path d="M160 489 L192 489" fill="none" stroke="var(--wall)" stroke-width="1"/></g><circle cx="348" cy="230" r="8" fill="var(--bg)" stroke="var(--ink)" stroke-width="1"/><text x="348" y="233.5" text-anchor="middle" class="rk">1</text><text x="176" y="148" text-anchor="middle" class="rn">Quarto 1</text><text x="176" y="162" text-anchor="middle" class="ra">14.0 m²</text><text x="462" y="148" text-anchor="middle" class="rn">Quarto 2</text><text x="462" y="162" text-anchor="middle" class="ra">12.5 m²</text><text x="176" y="352" text-anchor="middle" class="rn">Quarto 3</text><text x="176" y="366" text-anchor="middle" class="ra">13.4 m²</text><text x="424" y="252" text-anchor="middle" class="rn">WC da suite</text><text x="424" y="266" text-anchor="middle" class="ra">7.5 m²</text><text x="200" y="448" text-anchor="middle" class="rn">WC superior</text><text x="200" y="462" text-anchor="middle" class="ra">7.3 m²</text><g class="dims" stroke="var(--muted)" stroke-width="1"><line x1="78" y1="60" x2="550" y2="60"/><line x1="78" y1="55" x2="78" y2="65"/><line x1="550" y1="55" x2="550" y2="65"/><line x1="44" y1="86" x2="44" y2="486"/><line x1="39" y1="86" x2="49" y2="86"/><line x1="39" y1="486" x2="49" y2="486"/></g><text x="314" y="53" text-anchor="middle" class="dim">11.80 m</text><text x="36" y="286" text-anchor="middle" class="dim" transform="rotate(-90 36 286)">10.00 m</text><g transform="rotate(0 608 116)" stroke="var(--ink)" fill="var(--ink)"><line x1="608" y1="136" x2="608" y2="102" stroke-width="1.5"/><path d="M608 96 L603 107 L613 107 z" stroke="none"/></g><text x="608" y="150" text-anchor="middle" class="dim">N</text><g stroke="var(--ink)"><line x1="78" y1="526" x2="278" y2="526" stroke-width="2"/><line x1="78" y1="522" x2="78" y2="530" stroke-width="1"/><line x1="118" y1="522" x2="118" y2="530" stroke-width="1"/><line x1="158" y1="522" x2="158" y2="530" stroke-width="1"/><line x1="198" y1="522" x2="198" y2="530" stroke-width="1"/><line x1="238" y1="522" x2="238" y2="530" stroke-width="1"/><line x1="278" y1="522" x2="278" y2="530" stroke-width="1"/></g><text x="78" y="543" text-anchor="start" class="dim">0</text><text x="278" y="543" text-anchor="middle" class="dim">5 m</text><text x="338" y="526" text-anchor="end" class="rk">1</text><text x="346" y="526" text-anchor="start" class="ra">Hall superior  11.6 m²</text><text x="78" y="24" class="title">Moradia de 2 pisos — Piso 1</text></svg>